<svg xmlns="http://www.w3.org/2000/svg" xmlns:xlink="http://www.w3.org/1999/xlink" viewBox="0 0 1367 906"><defs><style>.cls-1,.cls-10,.cls-11,.cls-12,.cls-13,.cls-14,.cls-6,.cls-7,.cls-8,.cls-9{fill:none;}.cls-2{fill:#232328;}.cls-3{opacity:0.36;}.cls-4{clip-path:url(#clip-path);}.cls-11,.cls-13,.cls-14,.cls-5,.cls-7,.cls-8,.cls-9{opacity:0.5;}.cls-6,.cls-9{stroke:#f7ffd9;}.cls-10,.cls-11,.cls-12,.cls-13,.cls-14,.cls-6,.cls-7,.cls-8,.cls-9{stroke-miterlimit:10;}.cls-10,.cls-11,.cls-12,.cls-13,.cls-6,.cls-7,.cls-8,.cls-9{stroke-width:3px;}.cls-10,.cls-7{stroke:#beaeff;}.cls-8{stroke:#57dbff;}.cls-11{stroke:#ffb0d8;}.cls-12{stroke:#14c496;}.cls-13,.cls-14{stroke:#fff;}.cls-14{stroke-width:2.53837px;}</style><clipPath id="clip-path"><rect class="cls-1" width="1366" height="906"/></clipPath></defs><g id="Layer_2" data-name="Layer 2"><g id="Layer_1-2" data-name="Layer 1"><rect class="cls-2" x="1" width="1366" height="906"/><g class="cls-3"><g class="cls-4"><g class="cls-5"><polygon class="cls-6" points="960.375 9.072 964.173 -0.216 970.578 2.404 975.18 -8.847 988.287 -3.486 993.091 -15.232 1010.565 -8.085 1006.766 1.203 998.58 -2.146 993.776 9.6 980.669 4.239 976.068 15.49 960.375 9.072"/></g><path class="cls-7" d="M945.17765,41.59181,916.89308,22.96938a4.77,4.77,0,0,0-7.39308,3.984v26.472a4.77,4.77,0,0,0,6.04558,4.5963l28.28457-7.84959A4.77,4.77,0,0,0,945.17765,41.59181Z"/><circle class="cls-8" cx="1003.40805" cy="45.2772" r="15.59195"/><rect class="cls-9" x="1010" y="40" width="41" height="41" rx="7.58999" transform="translate(21.35068 277.77436) rotate(-15.5105)"/><g class="cls-5"><path class="cls-10" d="M1042.73516,2.64654a26.33161,26.33161,0,1,1,36.44672,38.01383Z"/></g><rect class="cls-11" x="894.35679" y="-7.9131" width="41" height="41" rx="7.58999" transform="translate(682.33897 -872.31809) rotate(74.4895)"/><path class="cls-11" d="M849.4784,210.02267l8.90584-43.23542a8.057,8.057,0,0,1,13.58846-4.07166l24.39995,24.4a8.057,8.057,0,0,1-1.731,12.71032l-33.3058,18.83546A8.057,8.057,0,0,1,849.4784,210.02267Z"/><g class="cls-5"><path class="cls-12" d="M905.87056,206.00638a20.40864,20.40864,0,1,1-40.80824-.85886Z"/></g><circle class="cls-13" cx="936.26217" cy="245.94149" r="21.21164"/><g class="cls-5"><polygon class="cls-6" points="973.243 192.466 963.989 196.348 961.313 189.967 950.104 194.669 944.626 181.61 932.924 186.518 925.621 169.109 934.875 165.227 938.296 173.383 949.998 168.475 955.476 181.534 966.685 176.832 973.243 192.466"/></g><path class="cls-7" d="M1006.98408,180.2174l6.83216,33.16825a4.77,4.77,0,0,0,8.04483,2.41057l18.71854-18.71854a4.77,4.77,0,0,0-1.0248-7.52495l-25.5507-14.44971A4.77,4.77,0,0,0,1006.98408,180.2174Z"/><circle class="cls-8" cx="968.41492" cy="136.43632" r="15.59195"/><rect class="cls-9" x="791.73685" y="146.11936" width="41" height="41" rx="7.58999" transform="translate(1437.22434 711.48755) rotate(-150.5105)"/><rect class="cls-9" x="939.52217" y="86.01528" width="41" height="41" rx="7.58999" transform="translate(1743.23586 671.81554) rotate(-150.5105)"/><g class="cls-5"><path class="cls-10" d="M910.462,138.77228a26.3316,26.3316,0,1,1,1.10811-52.65155Z"/></g><rect class="cls-11" x="987.41459" y="201.66706" width="41" height="41" rx="7.58999" transform="translate(318.37 990.13729) rotate(-60.5105)"/><path class="cls-11" d="M1103.23514,47.13123l43.23541,8.90584a8.057,8.057,0,0,1,4.07166,13.58846l-24.4,24.4a8.057,8.057,0,0,1-12.71031-1.731l-18.83547-33.3058A8.057,8.057,0,0,1,1103.23514,47.13123Z"/><g class="cls-5"><path class="cls-12" d="M1107.25142,103.52339a20.40864,20.40864,0,0,1,.85886-40.80824Z"/></g><circle class="cls-14" cx="1046.05234" cy="130.65103" r="17.94766"/><path class="cls-7" d="M1133.0404,204.63691l-33.16825,6.83216a4.77,4.77,0,0,0-2.41056,8.04484l18.71854,18.71854a4.77,4.77,0,0,0,7.52494-1.02481l14.44971-25.5507A4.77,4.77,0,0,0,1133.0404,204.63691Z"/><circle class="cls-8" cx="790.82148" cy="255.06775" r="15.59195"/><rect class="cls-9" x="1126.13845" y="-10.61032" width="41" height="41" rx="7.58999" transform="translate(573.58104 1003.10806) rotate(-60.5105)"/><rect class="cls-9" x="800.24252" y="226.175" width="41" height="41" rx="7.58999" transform="translate(202.00319 839.6577) rotate(-60.5105)"/><g class="cls-5"><path class="cls-10" d="M1221.48552,69.11486a26.3316,26.3316,0,1,1,52.65155,1.10811Z"/></g><rect class="cls-11" x="1070.59075" y="185.06742" width="41" height="41" rx="7.58999" transform="translate(242.54877 -510.47272) rotate(29.4895)"/><path class="cls-11" d="M610.40524,345.51245,586.13057,308.643a8.057,8.057,0,0,1,6.7294-12.48758h34.50674a8.057,8.057,0,0,1,7.76356,10.21154L624.8982,343.23641A8.057,8.057,0,0,1,610.40524,345.51245Z"/><g class="cls-5"><path class="cls-12" d="M647.44058,302.79723a20.40864,20.40864,0,0,1-29.46308,28.24848Z"/></g><circle class="cls-13" cx="697.16908" cy="309.54549" r="21.21164"/><g class="cls-5"><polygon class="cls-6" points="685.506 245.583 681.707 254.871 675.303 252.252 670.701 263.503 657.594 258.142 652.79 269.887 635.316 262.741 639.114 253.453 647.301 256.801 652.104 245.056 665.212 250.416 669.813 239.165 685.506 245.583"/></g><path class="cls-7" d="M700.70307,213.06361,728.98764,231.686a4.77,4.77,0,0,0,7.39308-3.984V201.23a4.77,4.77,0,0,0-6.04559-4.59629l-28.28456,7.84958A4.77,4.77,0,0,0,700.70307,213.06361Z"/><circle class="cls-8" cx="642.47266" cy="209.37822" r="15.59195"/><rect class="cls-9" x="532.88072" y="320.65543" width="41" height="41" rx="7.58999" transform="translate(1177.83817 521.90423) rotate(164.4895)"/><rect class="cls-9" x="594.88072" y="173.65543" width="41" height="41" rx="7.58999" transform="translate(1260.27024 216.67803) rotate(164.4895)"/><g class="cls-5"><path class="cls-10" d="M603.14555,252.00888a26.3316,26.3316,0,1,1-36.44671-38.01382Z"/></g><rect class="cls-11" x="710.52393" y="221.56853" width="41" height="41" rx="7.58999" transform="matrix(-0.26741, -0.96358, 0.96358, -0.26741, 693.25786, 1011.20238)"/><path class="cls-11" d="M796.40232,44.63276l-8.90584,43.23541A8.057,8.057,0,0,1,773.908,91.93983l-24.4-24.4a8.057,8.057,0,0,1,1.731-12.71032l33.3058-18.83546A8.057,8.057,0,0,1,796.40232,44.63276Z"/><g class="cls-5"><path class="cls-12" d="M740.01016,48.649a20.40864,20.40864,0,1,1,40.80824.85886Z"/></g><circle class="cls-13" cx="709.61854" cy="8.71394" r="21.21164"/><g class="cls-5"><polygon class="cls-6" points="672.638 62.189 681.891 58.308 684.568 64.689 695.777 59.987 701.255 73.046 712.957 68.137 720.26 85.547 711.006 89.428 707.585 81.272 695.883 86.181 690.405 73.122 679.196 77.824 672.638 62.189"/></g><path class="cls-7" d="M638.89664,74.438l-6.83216-33.16825a4.77,4.77,0,0,0-8.04484-2.41056L605.3011,57.57775a4.77,4.77,0,0,0,1.02481,7.52495l25.5507,14.44971A4.77,4.77,0,0,0,638.89664,74.438Z"/><circle class="cls-8" cx="677.4658" cy="118.2191" r="15.59195"/><rect class="cls-9" x="813.14387" y="67.53607" width="41" height="41" rx="7.58999" transform="translate(151.33899 -398.96753) rotate(29.4895)"/><rect class="cls-9" x="665.35855" y="127.64015" width="41" height="41" rx="7.58999" transform="translate(161.77988 -318.43139) rotate(29.4895)"/><g class="cls-5"><path class="cls-10" d="M735.41869,115.88314a26.33161,26.33161,0,0,1-1.10811,52.65156Z"/></g><rect class="cls-11" x="617.46613" y="11.98837" width="41" height="41" rx="7.58999" transform="translate(980.29333 -506.83376) rotate(119.4895)"/><path class="cls-11" d="M542.64558,207.5242l-43.23541-8.90585a8.057,8.057,0,0,1-4.07166-13.58846l24.4-24.39995a8.057,8.057,0,0,1,12.71032,1.731l18.83546,33.3058A8.057,8.057,0,0,1,542.64558,207.5242Z"/><g class="cls-5"><path class="cls-12" d="M538.6293,151.132a20.40863,20.40863,0,1,1-.85886,40.80823Z"/></g><circle class="cls-14" cx="599.82838" cy="124.0044" r="17.94766"/><g class="cls-5"><polygon class="cls-6" points="525.089 83.76 528.971 93.013 522.59 95.69 527.292 106.899 514.233 112.377 519.141 124.079 501.731 131.381 497.85 122.128 506.006 118.707 501.098 107.005 514.157 101.527 509.455 90.318 525.089 83.76"/></g><path class="cls-7" d="M512.84032,50.01852l33.16825-6.83216a4.77,4.77,0,0,0,2.41056-8.04484L529.70059,16.423a4.77,4.77,0,0,0-7.52494,1.0248l-14.44972,25.5507A4.77,4.77,0,0,0,512.84032,50.01852Z"/><circle class="cls-8" cx="469.05924" cy="88.58767" r="15.59195"/><rect class="cls-9" x="478.74227" y="224.26574" width="41" height="41" rx="7.58999" transform="translate(958.05666 -69.30825) rotate(119.4895)"/><rect class="cls-9" x="418.6382" y="76.48042" width="41" height="41" rx="7.58999" transform="translate(739.72639 -237.52563) rotate(119.4895)"/><g class="cls-5"><path class="cls-10" d="M471.3952,146.54057a26.33161,26.33161,0,0,1-52.65156-1.10812Z"/></g><rect class="cls-11" x="534.28997" y="28.588" width="41" height="41" rx="7.58999" transform="translate(1013.54036 364.91965) rotate(-150.5105)"/><path class="cls-11" d="M1215.68581-30.84012l43.23541,8.90585a8.057,8.057,0,0,1,4.07166,13.58846l-24.39995,24.4a8.057,8.057,0,0,1-12.71032-1.731l-18.83546-33.30579A8.057,8.057,0,0,1,1215.68581-30.84012Z"/><g class="cls-5"><path class="cls-12" d="M1219.70209,25.552a20.40863,20.40863,0,1,1,.85886-40.80823Z"/></g><path class="cls-11" d="M463.85591,15.5411,439.58124-21.32833a8.057,8.057,0,0,1,6.7294-12.48759h34.50674a8.057,8.057,0,0,1,7.76356,10.21154L478.34887,13.26506A8.057,8.057,0,0,1,463.85591,15.5411Z"/><g class="cls-5"><path class="cls-12" d="M500.89125-27.17411a20.40863,20.40863,0,0,1-.6073,28.85577,20.40862,20.40862,0,0,1-28.85578-.6073Z"/></g><circle class="cls-13" cx="550.61975" cy="-20.42585" r="21.21164"/><rect class="cls-9" x="386.33139" y="-9.31592" width="41" height="41" rx="7.58999" transform="matrix(-0.96358, 0.26741, -0.26741, -0.96358, 801.83737, -86.83192)"/><circle class="cls-13" cx="-19.72333" cy="15.21508" r="21.21164"/><path class="cls-7" d="M75.93509,2.14949,62.43956,33.20882a4.77,4.77,0,0,0,5.193,6.60025L93.7123,35.269a4.77,4.77,0,0,0,3.49134-6.7443L84.61938,2.00544A4.77,4.77,0,0,0,75.93509,2.14949Z"/><rect class="cls-9" x="19.97452" y="284.47852" width="41" height="41" rx="7.58999" transform="translate(-217.7036 472.29302) rotate(-115.38589)"/><rect class="cls-11" x="32.06015" y="16.4956" width="41" height="41" rx="7.58999" transform="translate(-10.78532 26.10546) rotate(-25.38589)"/><path class="cls-11" d="M258.28331,67.54386l-44.1222-1.35875a8.057,8.057,0,0,1-6.34184-12.68881L227.673,25.27314a8.057,8.057,0,0,1,12.81886-.47456l24.26852,29.58191A8.057,8.057,0,0,1,258.28331,67.54386Z"/><g class="cls-5"><path class="cls-12" d="M244.65494,12.67607A20.40863,20.40863,0,0,1,250.80766,53.027Z"/></g><rect class="cls-9" x="201.41025" y="91.17753" width="41" height="41" rx="7.58999" transform="translate(401.59929 -59.86804) rotate(109.61411)"/><g class="cls-5"><path class="cls-10" d="M177.62958,19.68369a26.33161,26.33161,0,0,1-52.06147,7.93836Z"/></g><path class="cls-11" d="M432.768,279.83736l-32.15989,30.23833a8.057,8.057,0,0,1-13.45669-4.488l-5.91812-33.99546a8.057,8.057,0,0,1,8.72874-9.39987l38.078,3.75713A8.057,8.057,0,0,1,432.768,279.83736Z"/><g class="cls-5"><path class="cls-12" d="M384.334,250.67669a20.40863,20.40863,0,0,1,32.883,24.18175Z"/></g><circle class="cls-13" cx="382.45348" cy="200.52765" r="21.21164"/><g class="cls-5"><polygon class="cls-6" points="321.439 222.988 331.241 225.137 329.759 231.896 341.632 234.5 338.599 248.333 350.994 251.051 346.951 269.492 337.149 267.343 339.043 258.703 326.648 255.985 329.681 242.152 317.808 239.549 321.439 222.988"/></g><path class="cls-7" d="M286.79506,213.59325l13.49553-31.05934a4.77,4.77,0,0,0-5.193-6.60025l-26.07978,4.54011a4.77,4.77,0,0,0-3.49134,6.7443l12.58426,26.51922A4.77,4.77,0,0,0,286.79506,213.59325Z"/><circle class="cls-8" cx="293.15115" cy="271.59293" r="15.59195"/><rect class="cls-9" x="417.75563" y="316.26421" width="41" height="41" rx="7.58999" transform="translate(554.61645 -203.54893) rotate(64.61411)"/><rect class="cls-9" x="262.30034" y="280.39425" width="41" height="41" rx="7.58999" transform="translate(433.40042 -83.59632) rotate(64.61411)"/><g class="cls-5"><path class="cls-10" d="M341.895,303.02591a26.33161,26.33161,0,0,1-31.19974,42.42629Z"/></g><rect class="cls-11" x="289.67" y="158.24713" width="41" height="41" rx="7.58999" transform="translate(667.02143 207.26079) rotate(154.61411)"/><path class="cls-11" d="M104.44684,148.19888l44.1222,1.35875a8.057,8.057,0,0,1,6.34184,12.6888L135.05719,190.4696a8.057,8.057,0,0,1-12.81886.47456L97.96981,161.36224A8.057,8.057,0,0,1,104.44684,148.19888Z"/><g class="cls-5"><path class="cls-12" d="M118.07521,203.06666a20.40863,20.40863,0,1,1-6.15272-40.35088Z"/></g><circle class="cls-13" cx="83.94417" cy="239.85708" r="21.21164"/><g class="cls-5"><polygon class="cls-6" points="142.969 267.119 137.558 258.668 143.386 254.937 136.831 244.7 148.757 237.064 141.914 226.377 157.814 216.196 163.225 224.647 155.776 229.417 162.619 240.103 150.693 247.74 157.248 257.976 142.969 267.119"/></g><path class="cls-7" d="M160.82366,298.259l-31.505,12.41949a4.77,4.77,0,0,0-.99511,8.33906L149.975,334.24842a4.77,4.77,0,0,0,7.23769-2.3002l9.85351-27.65033A4.77,4.77,0,0,0,160.82366,298.259Z"/><circle class="cls-8" cx="197.34119" cy="252.75263" r="15.59195"/><rect class="cls-9" x="120.3199" y="83.56521" width="41" height="41" rx="7.58999" transform="translate(-4.47783 201.78103) rotate(-70.38589)"/><rect class="cls-9" x="204.87949" y="218.85259" width="41" height="41" rx="7.58999" transform="translate(-75.7408 371.30767) rotate(-70.38589)"/><g class="cls-5"><path class="cls-10" d="M185.10057,196.05905a26.33161,26.33161,0,0,1,52.06147-7.93837Z"/></g><rect class="cls-11" x="99.15516" y="285.87037" width="41" height="41" rx="7.58999" transform="translate(109.7865 -22.38907) rotate(19.61411)"/><path class="cls-11" d="M308.44554,370.25885l-1.35875,44.12221a8.057,8.057,0,0,1-12.68881,6.34183l-28.22316-19.85368a8.057,8.057,0,0,1-.47456-12.81887l29.58192-24.26852A8.057,8.057,0,0,1,308.44554,370.25885Z"/><g class="cls-5"><path class="cls-12" d="M253.57776,383.88722a20.40863,20.40863,0,0,1,40.35088-6.15272Z"/></g><circle class="cls-14" cx="216.35605" cy="328.24748" r="17.94766"/><g class="cls-5"><polygon class="cls-6" points="189.526 408.782 197.977 403.37 201.708 409.198 211.944 402.643 219.581 414.569 230.267 407.726 240.448 423.626 231.997 429.037 227.228 421.588 216.541 428.431 208.905 416.505 198.668 423.06 189.526 408.782"/></g><path class="cls-7" d="M158.3854,426.63567l-12.41949-31.505a4.77,4.77,0,0,0-8.33906-.99511L122.396,415.78705a4.77,4.77,0,0,0,2.30019,7.23769l27.65034,9.85351A4.77,4.77,0,0,0,158.3854,426.63567Z"/><circle class="cls-8" cx="203.89179" cy="463.15321" r="15.59195"/><rect class="cls-9" x="332.07921" y="386.13191" width="41" height="41" rx="7.58999" transform="matrix(0.94197, 0.33568, -0.33568, 0.94197, 156.95811, -94.76015)"/><rect class="cls-9" x="196.79183" y="470.6915" width="41" height="41" rx="7.58999" transform="translate(177.4933 -44.43982) rotate(19.61411)"/><g class="cls-5"><path class="cls-10" d="M260.58537,450.91258a26.33161,26.33161,0,0,1,7.93837,52.06147Z"/></g><rect class="cls-11" x="129.77405" y="364.96717" width="41" height="41" rx="7.58999" transform="translate(563.81895 373.30778) rotate(109.61411)"/><path class="cls-11" d="M-46.986,220.87537-14.82609,190.637A8.057,8.057,0,0,1-1.3694,195.125l5.91812,33.99546A8.057,8.057,0,0,1-4.18,238.52036l-38.078-3.75713A8.057,8.057,0,0,1-46.986,220.87537Z"/><g class="cls-5"><path class="cls-12" d="M1.44811,250.036a20.40863,20.40863,0,0,1-28.53238,4.35063,20.40863,20.40863,0,0,1-4.35063-28.53238Z"/></g><path class="cls-11" d="M309.44306,57.10026l29.1346-33.16309a8.057,8.057,0,0,1,13.82289,3.18631L361.52869,60.401a8.057,8.057,0,0,1-7.79406,10.18828l-38.26275-.11443A8.057,8.057,0,0,1,309.44306,57.10026Z"/><g class="cls-5"><path class="cls-12" d="M360.43367,81.51673a20.40863,20.40863,0,0,1-35.03611-20.94088Z"/></g><circle class="cls-13" cx="367.08059" cy="131.25888" r="21.21164"/><path class="cls-11" d="M132.82,480.80736l-32.1599,30.23833a8.057,8.057,0,0,1-13.45669-4.488l-5.91811-33.99546a8.057,8.057,0,0,1,8.72874-9.39987l38.078,3.75713A8.057,8.057,0,0,1,132.82,480.80736Z"/><g class="cls-5"><path class="cls-12" d="M84.38586,451.64669a20.40864,20.40864,0,0,1,32.883,24.18175Z"/></g><circle class="cls-13" cx="82.5054" cy="401.49765" r="21.21164"/><g class="cls-5"><polygon class="cls-6" points="21.491 423.958 31.293 426.107 29.811 432.866 41.684 435.47 38.651 449.303 51.046 452.021 47.002 470.462 37.201 468.313 39.095 459.673 26.7 456.955 29.733 443.122 17.86 440.519 21.491 423.958"/></g><path class="cls-7" d="M-13.153,414.56325.34251,383.50391a4.77,4.77,0,0,0-5.193-6.60025l-26.07978,4.54011a4.77,4.77,0,0,0-3.49134,6.7443l12.58425,26.51922A4.77,4.77,0,0,0-13.153,414.56325Z"/><circle class="cls-8" cx="-6.79694" cy="472.56292" r="15.59195"/><rect class="cls-9" x="117.80754" y="517.23421" width="41" height="41" rx="7.58999" transform="translate(564.82442 182.24806) rotate(64.61411)"/><rect class="cls-9" x="-37.64775" y="481.36425" width="41" height="41" rx="7.58999" transform="translate(443.6084 302.20066) rotate(64.61411)"/><g class="cls-5"><path class="cls-10" d="M41.9469,503.99591A26.33161,26.33161,0,1,1,10.74716,546.4222Z"/></g><rect class="cls-11" x="-10.27808" y="359.21713" width="41" height="41" rx="7.58999" transform="translate(182.24636 718.38685) rotate(154.61411)"/><path class="cls-11" d="M8.49746,571.22885,7.1387,615.35105a8.057,8.057,0,0,1-12.6888,6.34184L-33.77326,601.8392a8.057,8.057,0,0,1-.47456-12.81886l29.58191-24.26852A8.057,8.057,0,0,1,8.49746,571.22885Z"/><g class="cls-5"><polygon class="cls-6" points="53.997 123.998 52.402 114.09 59.233 112.991 57.301 100.99 71.282 98.739 69.265 86.21 87.905 83.209 89.5 93.116 80.767 94.522 82.784 107.051 68.803 109.302 70.735 121.302 53.997 123.998"/></g><path class="cls-7" d="M57.962,159.67344l-33.84458-1.16452a4.77,4.77,0,0,0-4.23591,7.2517l13.78826,22.5976a4.77,4.77,0,0,0,7.55479.77468l20.05632-21.43307A4.77,4.77,0,0,0,57.962,159.67344Z"/><rect class="cls-9" x="32.13112" y="587.10191" width="41" height="41" rx="7.58999" transform="translate(207.01589 17.58881) rotate(19.61411)"/><rect class="cls-11" x="-3.52864" y="130.20663" width="41" height="41" rx="7.58999" transform="translate(107.55221 29.06936) rotate(43.09944)"/><path class="cls-11" d="M1346.15769,398.35816l-6.15847-43.71142a8.057,8.057,0,0,0-13.3043-4.92142l-25.89173,22.81082a8.057,8.057,0,0,0,.92509,12.79425l32.05021,20.90059A8.057,8.057,0,0,0,1346.15769,398.35816Z"/><g class="cls-5"><path class="cls-12" d="M1290.13159,390.78965a20.40864,20.40864,0,1,0,40.78105,1.71922Z"/></g><circle class="cls-13" cx="1257.27936" cy="428.72636" r="21.21164"/><g class="cls-5"><polygon class="cls-6" points="1223.748 373.023 1232.738 377.481 1235.813 371.282 1246.702 376.682 1252.994 363.995 1264.362 369.632 1272.75 352.719 1263.76 348.26 1259.83 356.185 1248.462 350.547 1242.17 363.234 1231.281 357.834 1223.748 373.023"/></g><path class="cls-7" d="M1190.84793,358.66848l-8.91256,32.67074a4.77,4.77,0,0,1-8.181,1.89786l-17.49943-19.863a4.77,4.77,0,0,1,1.49783-7.44523l26.412-12.80778A4.77,4.77,0,0,1,1190.84793,358.66848Z"/><circle class="cls-8" cx="1232.10419" cy="317.40974" r="15.59195"/><rect class="cls-9" x="1365.56515" y="336.89262" width="41" height="41" rx="7.58999" transform="translate(-17.03965 640.59397) rotate(-25.86982)"/><rect class="cls-9" x="1221.86922" y="267.57825" width="41" height="41" rx="7.58999" transform="translate(-1.19595 570.94928) rotate(-25.86982)"/><g class="cls-5"><path class="cls-10" d="M1289.794,323.39981a26.33161,26.33161,0,1,0,2.21817-52.61648Z"/></g><rect class="cls-11" x="1166.77085" y="379.9757" width="41" height="41" rx="7.58999" transform="translate(1344.96708 1643.50617) rotate(-115.86982)"/><path class="cls-11" d="M1007.69922,295.55075l35.26334,26.55394a8.057,8.057,0,0,0,12.88753-5.92759l2.17853-34.43791a8.057,8.057,0,0,0-9.701-8.39276l-37.44187,7.884A8.057,8.057,0,0,0,1007.69922,295.55075Z"/><g class="cls-5"><path class="cls-12" d="M1052.66739,261.28605a20.40863,20.40863,0,0,0-30.05222,27.62088Z"/></g><circle class="cls-8" cx="1145.5864" cy="272.14192" r="15.59195"/><rect class="cls-9" x="987.9474" y="332.23659" width="41" height="41" rx="7.58999" transform="translate(1672.18858 -484.42344) rotate(109.13018)"/><rect class="cls-9" x="1138.56842" y="279.64088" width="41" height="41" rx="7.58999" transform="translate(1822.47928 -696.55876) rotate(109.13018)"/><g class="cls-5"><path class="cls-10" d="M1100.55793,308.69915a26.33161,26.33161,0,0,0,35.637,38.774Z"/></g><path class="cls-11" d="M1305.78266,250.02749l26.55394-35.26334a8.057,8.057,0,0,0-5.92759-12.88753l-34.43791-2.17853a8.057,8.057,0,0,0-8.39276,9.701l7.884,37.44188A8.057,8.057,0,0,0,1305.78266,250.02749Z"/><g class="cls-5"><path class="cls-12" d="M1271.518,205.05932a20.40863,20.40863,0,1,0,27.62089,30.05222Z"/></g><circle class="cls-14" cx="1207.66511" cy="225.16031" r="17.94766"/><g class="cls-5"><polygon class="cls-6" points="1237.141 145.556 1240.345 155.066 1246.903 152.856 1250.785 164.375 1264.204 159.852 1268.257 171.877 1286.148 165.848 1282.943 156.339 1274.561 159.164 1270.509 147.138 1257.089 151.661 1253.207 140.142 1237.141 145.556"/></g><path class="cls-7" d="M1224.02691,112.14206l-29.40383,16.79958a4.77,4.77,0,0,1-7.12681-4.44284l1.67127-26.4192a4.77,4.77,0,0,1,6.3237-4.20545l27.73257,9.61963A4.77,4.77,0,0,1,1224.02691,112.14206Z"/><circle class="cls-8" cx="1282.37383" cy="112.14031" r="15.59195"/><rect class="cls-9" x="1342.4685" y="228.77931" width="41" height="41" rx="7.58999" transform="translate(156.96073 -432.89997) rotate(19.13018)"/><rect class="cls-9" x="1289.8728" y="78.15829" width="41" height="41" rx="7.58999" transform="translate(104.69535 -423.98137) rotate(19.13018)"/><g class="cls-5"><path class="cls-10" d="M1318.93107,157.16878a26.3316,26.3316,0,1,0,38.774-35.637Z"/></g><rect class="cls-11" x="1107.43536" y="123.67485" width="41" height="41" rx="7.58999" transform="translate(1627.77803 1165.53761) rotate(-123.36073)"/><path class="cls-11" d="M738.74741,351.92787l6.15848,43.71142a8.057,8.057,0,0,0,13.30429,4.92142l25.89173-22.81083a8.057,8.057,0,0,0-.92508-12.79424L751.12662,344.055A8.057,8.057,0,0,0,738.74741,351.92787Z"/><g class="cls-5"><path class="cls-12" d="M794.77351,359.49637a20.40864,20.40864,0,1,0-40.781-1.71922Z"/></g><circle class="cls-13" cx="827.62574" cy="321.55966" r="21.21164"/><g class="cls-5"><polygon class="cls-6" points="861.157 377.263 852.167 372.805 849.093 379.004 838.203 373.604 831.911 386.291 820.543 380.654 812.155 397.567 821.145 402.026 825.075 394.101 836.443 399.739 842.735 387.052 853.625 392.452 861.157 377.263"/></g><path class="cls-7" d="M894.05717,391.61755l8.91256-32.67075a4.77,4.77,0,0,1,8.181-1.89786l17.49943,19.863a4.77,4.77,0,0,1-1.49784,7.44523l-26.412,12.80779A4.77,4.77,0,0,1,894.05717,391.61755Z"/><circle class="cls-8" cx="852.80091" cy="432.87628" r="15.59195"/><rect class="cls-9" x="678.33996" y="372.3934" width="41" height="41" rx="7.58999" transform="translate(1499.07793 441.49073) rotate(154.13018)"/><rect class="cls-9" x="822.03588" y="441.70777" width="41" height="41" rx="7.58999" transform="translate(1802.31348 510.47478) rotate(154.13018)"/><g class="cls-5"><path class="cls-10" d="M795.1111,426.88622a26.33161,26.33161,0,1,0-2.21816,52.61648Z"/></g><rect class="cls-11" x="877.13426" y="329.31032" width="41" height="41" rx="7.58999" transform="translate(820.72646 -610.50198) rotate(64.13018)"/><path class="cls-11" d="M1175.20589,466.73528l-35.26335-26.55394a8.057,8.057,0,0,0-12.88752,5.92758l-2.17853,34.43791a8.057,8.057,0,0,0,9.701,8.39276l37.44187-7.884A8.057,8.057,0,0,0,1175.20589,466.73528Z"/><g class="cls-5"><path class="cls-12" d="M1130.23771,501a20.40864,20.40864,0,0,0,30.05223-27.62088Z"/></g><circle class="cls-13" cx="1035.83298" cy="539.05531" r="21.21164"/><g class="cls-5"><polygon class="cls-6" points="972.735 523.377 982.244 520.173 980.034 513.615 991.553 509.733 987.03 496.314 999.056 492.261 993.027 474.37 983.517 477.575 986.342 485.957 974.317 490.009 978.839 503.429 967.32 507.311 972.735 523.377"/></g><path class="cls-7" d="M939.32046,536.491,956.12,565.89486a4.77,4.77,0,0,1-4.44284,7.12681L925.258,571.3504a4.77,4.77,0,0,1-4.20544-6.32371l9.61962-27.73256A4.77,4.77,0,0,1,939.32046,536.491Z"/><circle class="cls-8" cx="939.31871" cy="478.14411" r="15.59195"/><rect class="cls-9" x="1055.95771" y="377.04944" width="41" height="41" rx="7.58999" transform="matrix(0.32772, -0.94478, 0.94478, 0.32772, 348.09037, 1284.27812)"/><rect class="cls-9" x="905.33668" y="429.64514" width="41" height="41" rx="7.58999" transform="translate(197.13903 1177.3342) rotate(-70.86982)"/><g class="cls-5"><path class="cls-10" d="M984.34718,441.58687a26.33161,26.33161,0,0,0-35.637-38.77395Z"/></g><rect class="cls-11" x="945.85325" y="548.08257" width="41" height="41" rx="7.58999" transform="translate(1693.00761 1422.45503) rotate(-160.86982)"/><path class="cls-11" d="M779.12245,500.25853l-26.55394,35.26334a8.057,8.057,0,0,0,5.92758,12.88753l34.43791,2.17853a8.057,8.057,0,0,0,8.39277-9.701l-7.884-37.44187A8.057,8.057,0,0,0,779.12245,500.25853Z"/><g class="cls-5"><path class="cls-12" d="M813.38714,545.22671a20.40864,20.40864,0,1,0-27.62088-30.05223Z"/></g><circle class="cls-14" cx="877.23999" cy="525.12571" r="17.94766"/><g class="cls-5"><polygon class="cls-6" points="847.764 604.73 844.56 595.22 838.002 597.43 834.121 585.911 820.701 590.434 816.648 578.409 798.757 584.438 801.962 593.947 810.344 591.122 814.396 603.148 827.816 598.625 831.698 610.144 847.764 604.73"/></g><path class="cls-7" d="M860.87819,638.144,890.282,621.34438a4.77,4.77,0,0,1,7.12681,4.44284l-1.67127,26.4192a4.77,4.77,0,0,1-6.32371,4.20545l-27.73256-9.61962A4.77,4.77,0,0,1,860.87819,638.144Z"/><circle class="cls-8" cx="802.53128" cy="638.14571" r="15.59195"/><rect class="cls-9" x="701.43661" y="480.50671" width="41" height="41" rx="7.58999" transform="translate(1239.81756 1210.93594) rotate(-160.86982)"/><rect class="cls-9" x="754.03231" y="631.12773" width="41" height="41" rx="7.58999" transform="translate(1292.74358 1521.09659) rotate(-160.86982)"/><g class="cls-5"><path class="cls-10" d="M765.974,593.11724a26.33161,26.33161,0,1,0-38.77395,35.637Z"/></g><rect class="cls-11" x="872.46974" y="590.61117" width="41" height="41" rx="7.58999" transform="translate(1762.9733 -32.2749) rotate(109.13018)"/><circle class="cls-13" cx="1365.44671" cy="773.19352" r="21.21164"/><g class="cls-5"><polygon class="cls-6" points="1331.916 717.49 1340.906 721.948 1343.98 715.749 1354.87 721.149 1361.161 708.462 1372.53 714.1 1380.917 697.186 1371.927 692.728 1367.998 700.652 1356.629 695.014 1350.338 707.701 1339.448 702.301 1331.916 717.49"/></g><path class="cls-7" d="M1299.01528,703.13563l-8.91256,32.67075a4.77,4.77,0,0,1-8.181,1.89785l-17.49943-19.863a4.77,4.77,0,0,1,1.49784-7.44524l26.412-12.80778A4.77,4.77,0,0,1,1299.01528,703.13563Z"/><circle class="cls-8" cx="1340.27154" cy="661.87689" r="15.59195"/><rect class="cls-9" x="1330.03657" y="612.04541" width="41" height="41" rx="7.58999" transform="translate(-140.65688 652.66554) rotate(-25.86982)"/><rect class="cls-11" x="1274.93819" y="724.44285" width="41" height="41" rx="7.58999" transform="translate(1190.38353 2235.6016) rotate(-115.86982)"/><path class="cls-11" d="M1115.86656,640.0179l35.26335,26.55394a8.057,8.057,0,0,0,12.88752-5.92758l2.17853-34.43791a8.057,8.057,0,0,0-9.701-8.39277l-37.44187,7.884A8.057,8.057,0,0,0,1115.86656,640.0179Z"/><g class="cls-5"><path class="cls-12" d="M1160.83474,605.75321a20.40864,20.40864,0,1,0-30.05223,27.62088Z"/></g><circle class="cls-13" cx="1157.23947" cy="555.69787" r="21.21164"/><g class="cls-5"><polygon class="cls-6" points="1220.338 571.376 1210.828 574.581 1213.038 581.138 1201.52 585.02 1206.042 598.439 1194.017 602.492 1200.046 620.383 1209.555 617.178 1206.73 608.797 1218.756 604.744 1214.233 591.324 1225.752 587.442 1220.338 571.376"/></g><path class="cls-7" d="M1253.752,558.26216l-16.79958-29.40384a4.77,4.77,0,0,1,4.44284-7.12681l26.41921,1.67127a4.77,4.77,0,0,1,4.20544,6.32371l-9.61962,27.73256A4.77,4.77,0,0,1,1253.752,558.26216Z"/><circle class="cls-8" cx="1078.75374" cy="586.60907" r="15.59195"/><rect class="cls-9" x="1058.11474" y="655.70374" width="41" height="41" rx="7.58999" transform="translate(2070.95499 -121.2435) rotate(109.13018)"/><rect class="cls-9" x="1246.73577" y="624.10804" width="41" height="41" rx="7.58999" transform="translate(2291.5392 -341.3983) rotate(109.13018)"/><g class="cls-5"><path class="cls-10" d="M1208.72527,653.16631a26.33161,26.33161,0,1,0,35.637,38.774Z"/></g><rect class="cls-11" x="1206.2192" y="505.67061" width="41" height="41" rx="7.58999" transform="translate(240.17816 -372.95802) rotate(19.13018)"/><circle class="cls-14" cx="1315.83246" cy="569.62747" r="17.94766"/><g class="cls-5"><polygon class="cls-6" points="1345.308 490.024 1348.513 499.533 1355.07 497.323 1358.952 508.842 1372.372 504.319 1376.424 516.345 1394.315 510.315 1391.11 500.806 1382.729 503.631 1378.676 491.605 1365.256 496.128 1361.375 484.609 1345.308 490.024"/></g><path class="cls-7" d="M1332.19426,456.60922l-29.40384,16.79958a4.77,4.77,0,0,1-7.12681-4.44284l1.67127-26.41921a4.77,4.77,0,0,1,6.32371-4.20544l27.73256,9.61962A4.77,4.77,0,0,1,1332.19426,456.60922Z"/><rect class="cls-11" x="1279.60271" y="463.14201" width="41" height="41" rx="7.58999" transform="translate(417.10517 1553.45134) rotate(-70.86982)"/><path class="cls-11" d="M846.91475,696.395l6.15848,43.71142a8.057,8.057,0,0,0,13.3043,4.92142L892.26926,722.217a8.057,8.057,0,0,0-.92509-12.79425L859.294,688.5222A8.057,8.057,0,0,0,846.91475,696.395Z"/><g class="cls-5"><path class="cls-12" d="M902.94086,703.96352a20.40864,20.40864,0,0,0-40.78105-1.71922Z"/></g><circle class="cls-13" cx="935.79309" cy="666.02682" r="21.21164"/><g class="cls-5"><polygon class="cls-6" points="969.324 721.73 960.334 717.272 957.26 723.471 946.37 718.071 940.079 730.758 928.71 725.121 920.323 742.035 929.313 746.493 933.242 738.569 944.611 744.206 950.902 731.519 961.792 736.919 969.324 721.73"/></g><path class="cls-7" d="M1002.22452,736.0847l8.91256-32.67075a4.77,4.77,0,0,1,8.181-1.89785l17.49943,19.863a4.77,4.77,0,0,1-1.49783,7.44524l-26.412,12.80778A4.77,4.77,0,0,1,1002.22452,736.0847Z"/><circle class="cls-8" cx="960.96826" cy="777.34344" r="15.59195"/><rect class="cls-9" x="786.5073" y="716.86056" width="41" height="41" rx="7.58999" transform="translate(1854.87355 1048.70878) rotate(154.13018)"/><rect class="cls-9" x="930.20323" y="786.17493" width="41" height="41" rx="7.58999" transform="translate(2158.10909 1117.69283) rotate(154.13018)"/><g class="cls-5"><path class="cls-10" d="M903.27845,771.35337a26.33161,26.33161,0,1,0-2.21817,52.61648Z"/></g><rect class="cls-11" x="985.3016" y="673.77748" width="41" height="41" rx="7.58999" transform="translate(1191.6447 -513.66309) rotate(64.13018)"/><path class="cls-11" d="M1185.37323,799.20243l-35.26334-26.55394a8.057,8.057,0,0,0-12.88753,5.92759l-2.17853,34.43791a8.057,8.057,0,0,0,9.701,8.39276l37.44187-7.884A8.057,8.057,0,0,0,1185.37323,799.20243Z"/><g class="cls-5"><path class="cls-12" d="M1140.40506,833.46713a20.40863,20.40863,0,1,0,30.05222-27.62089Z"/></g><circle class="cls-13" cx="1144.00032" cy="883.52247" r="21.21164"/><g class="cls-5"><polygon class="cls-6" points="1080.902 867.844 1090.411 864.64 1088.202 858.082 1099.72 854.201 1095.198 840.781 1107.223 836.728 1101.194 818.837 1091.685 822.042 1094.509 830.424 1082.484 834.476 1087.007 847.896 1075.488 851.778 1080.902 867.844"/></g><path class="cls-7" d="M1047.4878,880.95818l16.79958,29.40383a4.77,4.77,0,0,1-4.44284,7.12681l-26.4192-1.67127a4.77,4.77,0,0,1-4.20545-6.3237l9.61963-27.73257A4.77,4.77,0,0,1,1047.4878,880.95818Z"/><circle class="cls-8" cx="1047.48605" cy="822.61126" r="15.59195"/><rect class="cls-9" x="1164.12505" y="721.51659" width="41" height="41" rx="7.58999" transform="translate(95.36514 1618.05197) rotate(-70.86982)"/><rect class="cls-9" x="1013.50403" y="774.11229" width="41" height="41" rx="7.58999" transform="translate(-55.5862 1511.10805) rotate(-70.86982)"/><g class="cls-5"><path class="cls-10" d="M1092.51452,786.054a26.33161,26.33161,0,0,0-35.637-38.774Z"/></g><rect class="cls-11" x="1054.02059" y="892.54973" width="41" height="41" rx="7.58999" transform="translate(1790.48164 2127.81476) rotate(-160.86982)"/><path class="cls-11" d="M887.28979,844.72569,860.73585,879.989a8.057,8.057,0,0,0,5.92759,12.88753l34.43791,2.17853a8.057,8.057,0,0,0,8.39276-9.701l-7.884-37.44187A8.057,8.057,0,0,0,887.28979,844.72569Z"/><g class="cls-5"><path class="cls-12" d="M921.55449,889.69386a20.40864,20.40864,0,0,0-27.62089-30.05223Z"/></g><circle class="cls-14" cx="985.40734" cy="869.59287" r="17.94766"/><g class="cls-5"><polygon class="cls-6" points="1089.932 483.197 1086.727 473.687 1080.17 475.897 1076.288 464.379 1062.868 468.901 1058.816 456.876 1040.925 462.905 1044.129 472.414 1052.511 469.589 1056.564 481.615 1069.983 477.092 1073.865 488.611 1089.932 483.197"/></g><circle class="cls-8" cx="621.69862" cy="398.61287" r="15.59195"/><rect class="cls-9" x="809.60395" y="824.97387" width="41" height="41" rx="7.58999" transform="translate(1337.29159 1916.29567) rotate(-160.86982)"/><g class="cls-5"><polygon class="cls-6" points="693.911 649.831 687.977 657.923 693.557 662.015 686.37 671.817 697.79 680.191 690.286 690.425 705.511 701.589 711.444 693.497 704.312 688.266 711.816 678.033 700.396 669.659 707.583 659.857 693.911 649.831"/></g><g class="cls-5"><path class="cls-10" d="M1203.442,891.77125a26.33161,26.33161,0,0,0,21.36016-48.13687Z"/></g><path class="cls-11" d="M658.28913,793.27l-32.20836,30.18669a8.057,8.057,0,0,0,3.62946,13.71319l33.554,8.05256a8.057,8.057,0,0,0,9.93219-8.11789l-1.34564-38.23924A8.057,8.057,0,0,0,658.28913,793.27Z"/><g class="cls-5"><path class="cls-12" d="M684.33382,843.44847a20.40864,20.40864,0,0,0-22.05749-34.3441Z"/></g><circle class="cls-13" cx="734.2641" cy="848.49126" r="21.21164"/><g class="cls-5"><polygon class="cls-6" points="707.997 907.966 706.47 898.048 699.631 899.1 697.782 887.086 683.786 889.24 681.856 876.698 663.196 879.569 664.722 889.487 673.464 888.142 675.394 900.684 689.391 898.53 691.24 910.544 707.997 907.966"/></g><rect class="cls-9" x="581.3223" y="763.69936" width="41" height="41" rx="7.58999" transform="translate(747.90538 1761.85903) rotate(-150.99442)"/><circle class="cls-8" cx="745.70263" cy="756.12885" r="15.59195"/><rect class="cls-9" x="695.30628" y="744.10912" width="41" height="41" rx="7.58999" transform="translate(971.07582 1780.40594) rotate(-150.99442)"/><g class="cls-5"><path class="cls-10" d="M629.40972,882.49778a26.33161,26.33161,0,1,0-44.3114,28.459Z"/></g><rect class="cls-11" x="730.93766" y="901.50562" width="41" height="41" rx="7.58999" transform="translate(1922.16662 711.89458) rotate(119.00558)"/><path class="cls-11" d="M1245.22517,829.37491l37.63622-23.06794a8.057,8.057,0,0,0-.78821-14.16346L1250.83373,777.487a8.057,8.057,0,0,0-11.36574,5.94714l-6.39677,37.72442A8.057,8.057,0,0,0,1245.22517,829.37491Z"/><g class="cls-5"><path class="cls-12" d="M1229.83951,774.97374a20.40864,20.40864,0,1,0,14.675,38.088Z"/></g><g class="cls-5"><polygon class="cls-6" points="1040.135 610.163 1032.119 604.127 1027.957 609.655 1018.246 602.343 1009.728 613.655 999.591 606.022 988.234 621.103 996.25 627.14 1001.57 620.074 1011.708 627.708 1020.226 616.395 1029.936 623.707 1040.135 610.163"/></g><circle class="cls-8" cx="489.87363" cy="405.33075" r="15.59195"/><rect class="cls-9" x="1278.2009" y="829.15116" width="41" height="41" rx="7.58999" transform="translate(866.73232 -640.96424) rotate(40.64485)"/><path class="cls-11" d="M648.87421,518.63419l-44.12-1.42954a8.057,8.057,0,0,0-7.13027,12.26311l18.03225,29.42029a8.057,8.057,0,0,0,12.76333,1.28291l26.08772-27.99074A8.057,8.057,0,0,0,648.87421,518.63419Z"/><g class="cls-5"><path class="cls-12" d="M631.809,572.53212a20.40864,20.40864,0,0,0,8.68794-39.88195Z"/></g><circle class="cls-13" cx="663.54928" cy="611.40395" r="21.21164"/><g class="cls-5"><polygon class="cls-6" points="602.921 634.885 608.854 626.792 603.274 622.701 610.462 612.898 599.042 604.524 606.546 594.291 591.321 583.127 585.387 591.219 592.52 596.449 585.016 606.683 596.436 615.057 589.248 624.859 602.921 634.885"/></g><path class="cls-7" d="M583.13605,664.83572l30.65811,14.38373a4.77,4.77,0,0,1,.46665,8.38526l-22.56992,13.83352a4.77,4.77,0,0,1-7.078-2.75254l-8.0882-28.21726A4.77,4.77,0,0,1,583.13605,664.83572Z"/><circle class="cls-8" cx="549.56434" cy="617.11463" r="15.59195"/><rect class="cls-9" x="594.86003" y="451.79221" width="41" height="41" rx="7.58999" transform="translate(330.90958 1193.96793) rotate(-105.99442)"/><rect class="cls-9" x="501.92797" y="581.47117" width="41" height="41" rx="7.58999" transform="translate(87.71177 1270.04459) rotate(-105.99442)"/><g class="cls-5"><path class="cls-10" d="M565.3598,561.30694a26.33161,26.33161,0,0,0-51.45643-11.20935Z"/></g><rect class="cls-11" x="603.21033" y="655.03" width="41" height="41" rx="7.58999" transform="translate(1409.41399 1153.04972) rotate(164.00558)"/><path class="cls-11" d="M489.54242,834.44566,521.75079,804.259a8.057,8.057,0,0,0-3.62947-13.71319l-33.554-8.05256a8.057,8.057,0,0,0-9.9322,8.11789l1.34564,38.23924A8.057,8.057,0,0,0,489.54242,834.44566Z"/><g class="cls-5"><path class="cls-12" d="M463.49773,784.26717a20.40864,20.40864,0,0,0,22.05749,34.3441Z"/></g><circle class="cls-13" cx="413.56745" cy="779.22438" r="21.21164"/><g class="cls-5"><polygon class="cls-6" points="439.835 719.75 441.361 729.668 448.2 728.615 450.049 740.629 464.046 738.475 465.976 751.018 484.636 748.146 483.109 738.228 474.367 739.574 472.437 727.031 458.441 729.185 456.592 717.171 439.835 719.75"/></g><g class="cls-5"><polygon class="cls-6" points="621.925 738.328 629.941 744.364 634.104 738.836 643.814 746.148 652.333 734.836 662.47 742.469 673.827 727.388 665.81 721.351 660.49 728.417 650.353 720.783 641.834 732.096 632.124 724.784 621.925 738.328"/></g><path class="cls-7" d="M432.64623,684.58167l-31.84939,11.50772a4.77,4.77,0,0,1-6.25924-5.5993l6.17756-25.74112a4.77,4.77,0,0,1,6.95126-3.05858l25.67184,14.2334A4.77,4.77,0,0,1,432.64623,684.58167Z"/><circle class="cls-8" cx="490.12892" cy="694.58679" r="15.59195"/><rect class="cls-9" x="525.50926" y="823.01628" width="41" height="41" rx="7.58999" transform="translate(477.50119 -158.95689) rotate(29.00558)"/><rect class="cls-9" x="499.52528" y="665.60652" width="41" height="41" rx="7.58999" transform="translate(397.91492 -166.10091) rotate(29.00558)"/><g class="cls-5"><path class="cls-10" d="M518.42184,745.21787a26.33161,26.33161,0,0,0,44.3114-28.459Z"/></g><rect class="cls-11" x="375.89389" y="685.21002" width="41" height="41" rx="7.58999" transform="translate(-413.01001 710.19013) rotate(-60.99442)"/><path class="cls-11" d="M495.81679,532.97139,465.6301,500.763a8.057,8.057,0,0,0-13.71319,3.62947l-8.05256,33.554a8.057,8.057,0,0,0,8.11789,9.9322l38.23924-1.34565A8.057,8.057,0,0,0,495.81679,532.97139Z"/><g class="cls-5"><path class="cls-12" d="M445.6383,559.01608a20.40864,20.40864,0,0,0,34.3441-22.05749Z"/></g><circle class="cls-14" cx="454.49031" cy="625.37026" r="17.94766"/><g class="cls-5"><polygon class="cls-6" points="381.121 582.679 391.039 581.153 389.987 574.313 402 572.465 399.847 558.468 412.389 556.538 409.517 537.878 399.599 539.405 400.945 548.146 388.402 550.076 390.556 564.073 378.543 565.922 381.121 582.679"/></g><path class="cls-7" d="M345.9528,589.86758,357.46052,621.717a4.77,4.77,0,0,1-5.5993,6.25924l-25.74112-6.17756a4.77,4.77,0,0,1-3.05858-6.95127l14.2334-25.67183A4.77,4.77,0,0,1,345.9528,589.86758Z"/><circle class="cls-8" cx="355.95792" cy="532.38489" r="15.59195"/><rect class="cls-9" x="484.38741" y="456.00455" width="41" height="41" rx="7.58999" transform="translate(-156.66763 687.01065) rotate(-60.99442)"/><rect class="cls-9" x="326.97765" y="481.98853" width="41" height="41" rx="7.58999" transform="translate(-260.4751 562.72888) rotate(-60.99442)"/><g class="cls-5"><path class="cls-10" d="M406.589,504.092a26.33161,26.33161,0,0,0-28.459-44.3114Z"/></g><rect class="cls-11" x="346.58115" y="605.61992" width="41" height="41" rx="7.58999" transform="translate(384.51797 1351.70292) rotate(-150.99442)"/><path class="cls-11" d="M300.37457,840.75642,268.1662,870.9431a8.057,8.057,0,0,0,3.62947,13.71319l33.554,8.05256a8.057,8.057,0,0,0,9.93219-8.11788l-1.34564-38.23925A8.057,8.057,0,0,0,300.37457,840.75642Z"/><g class="cls-5"><path class="cls-12" d="M326.41926,890.9349a20.40863,20.40863,0,0,0-22.05749-34.34409Z"/></g><circle class="cls-13" cx="376.34954" cy="895.9777" r="21.21164"/><rect class="cls-9" x="223.40773" y="811.18579" width="41" height="41" rx="7.58999" transform="translate(53.94266 1677.32491) rotate(-150.99442)"/><g class="cls-5"><path class="cls-10" d="M550.328,392.1101a26.33161,26.33161,0,1,0,28.459,44.3114Z"/></g><path class="cls-11" d="M290.95965,566.12063l-44.12-1.42954a8.057,8.057,0,0,0-7.13026,12.26311l18.03225,29.42029A8.057,8.057,0,0,0,270.505,607.6574l26.08771-27.99075A8.057,8.057,0,0,0,290.95965,566.12063Z"/><g class="cls-5"><path class="cls-12" d="M273.89448,620.01855a20.40863,20.40863,0,1,0,8.68794-39.88194Z"/></g><circle class="cls-13" cx="305.63472" cy="658.89039" r="21.21164"/><g class="cls-5"><polygon class="cls-6" points="245.006 682.371 250.94 674.279 245.36 670.187 252.547 660.385 241.127 652.011 248.631 641.777 233.406 630.613 227.473 638.706 234.605 643.936 227.101 654.169 238.521 662.543 231.334 672.346 245.006 682.371"/></g><path class="cls-7" d="M225.22149,712.32216l30.65811,14.38373a4.77,4.77,0,0,1,.46664,8.38525l-22.56991,13.83353a4.77,4.77,0,0,1-7.078-2.75255l-8.0882-28.21725A4.77,4.77,0,0,1,225.22149,712.32216Z"/><circle class="cls-8" cx="191.64978" cy="664.60107" r="15.59195"/><rect class="cls-9" x="236.94547" y="499.27865" width="41" height="41" rx="7.58999" transform="translate(-171.27428 910.47979) rotate(-105.99442)"/><rect class="cls-9" x="144.0134" y="628.9576" width="41" height="41" rx="7.58999" transform="translate(-414.47209 986.55646) rotate(-105.99442)"/><g class="cls-5"><path class="cls-10" d="M207.44524,608.79338A26.33161,26.33161,0,1,0,155.9888,597.584Z"/></g><rect class="cls-11" x="245.29576" y="702.51643" width="41" height="41" rx="7.58999" transform="translate(720.52486 1344.80546) rotate(164.00558)"/><path class="cls-11" d="M131.62786,881.9321l32.20836-30.18669a8.057,8.057,0,0,0-3.62946-13.71319l-33.554-8.05256a8.057,8.057,0,0,0-9.93219,8.11788l1.34564,38.23925A8.057,8.057,0,0,0,131.62786,881.9321Z"/><g class="cls-5"><path class="cls-12" d="M105.58317,831.75361a20.40863,20.40863,0,0,0,22.05749,34.34409Z"/></g><circle class="cls-13" cx="55.65289" cy="826.71081" r="21.21164"/><g class="cls-5"><polygon class="cls-6" points="81.92 767.236 83.447 777.154 90.286 776.102 92.135 788.116 106.131 785.962 108.061 798.504 126.721 795.633 125.195 785.715 116.453 787.06 114.523 774.518 100.526 776.672 98.677 764.658 81.92 767.236"/></g><path class="cls-7" d="M74.73167,732.0681l-31.8494,11.50773a4.77,4.77,0,0,1-6.25923-5.5993l6.17756-25.74112a4.77,4.77,0,0,1,6.95126-3.05858l25.67183,14.23339A4.77,4.77,0,0,1,74.73167,732.0681Z"/><circle class="cls-8" cx="341.67281" cy="804.56781" r="15.59195"/><rect class="cls-9" x="167.59469" y="870.50272" width="41" height="41" rx="7.58999" transform="translate(455.63479 20.5501) rotate(29.00558)"/><rect class="cls-9" x="307.69078" y="756.06884" width="41" height="41" rx="7.58999" transform="translate(-513.04639 832.14201) rotate(-70.86982)"/><g class="cls-5"><path class="cls-10" d="M160.50727,792.7043a26.33161,26.33161,0,1,0,44.3114-28.459Z"/></g><rect class="cls-11" x="17.97933" y="732.69646" width="41" height="41" rx="7.58999" transform="translate(-638.90401 421.62841) rotate(-60.99442)"/><path class="cls-11" d="M137.90223,580.45783l-30.18669-32.20837a8.057,8.057,0,0,0-13.71319,3.62947l-8.05256,33.554a8.057,8.057,0,0,0,8.11788,9.93219l38.23925-1.34564A8.057,8.057,0,0,0,137.90223,580.45783Z"/><g class="cls-5"><path class="cls-12" d="M87.72374,606.50251a20.40864,20.40864,0,0,0,34.3441-22.05749Z"/></g><circle class="cls-14" cx="96.57575" cy="672.8567" r="17.94766"/><g class="cls-5"><polygon class="cls-6" points="399.725 408.601 408.501 413.466 411.856 407.415 422.487 413.309 429.354 400.924 440.452 407.077 449.606 390.566 440.83 385.7 436.542 393.435 425.443 387.282 418.577 399.667 407.946 393.773 399.725 408.601"/></g><path class="cls-7" d="M-11.96177,637.354-.454,669.20341a4.77,4.77,0,0,1-5.5993,6.25924l-25.74112-6.17756a4.77,4.77,0,0,1-3.05858-6.95127L-20.61965,636.662A4.77,4.77,0,0,1-11.96177,637.354Z"/><circle class="cls-8" cx="-1.95664" cy="847.87132" r="15.59195"/><rect class="cls-9" x="121.47285" y="709.49099" width="41" height="41" rx="7.58999" transform="translate(-565.29909 500.18774) rotate(-60.99442)"/><rect class="cls-9" x="34.06309" y="879.47497" width="41" height="41" rx="7.58999" transform="translate(-758.98763 511.30121) rotate(-60.99442)"/><g class="cls-5"><path class="cls-10" d="M-9.32557,808.57841a26.33161,26.33161,0,0,0,7.92621-36.3852,26.33161,26.33161,0,0,0-36.3852-7.9262Z"/></g><rect class="cls-11" x="-11.33341" y="653.10636" width="41" height="41" rx="7.58999" transform="translate(-309.44475 1267.16879) rotate(-150.99442)"/><g class="cls-5"><polygon class="cls-6" points="496.763 876.677 490.13 869.147 484.938 873.722 476.902 864.601 466.277 873.962 457.888 864.441 443.722 876.921 450.355 884.45 456.992 878.603 465.381 888.125 476.006 878.764 484.042 887.884 496.763 876.677"/></g></g></g></g></g></svg>