<svg xmlns="http://www.w3.org/2000/svg" viewBox="0 0 689.95097 93.64746"><defs><style>.cls-1{fill:#f7ffd9;}</style></defs><g id="Layer_2" data-name="Layer 2"><g id="Layer_1-2" data-name="Layer 1"><path class="cls-1" d="M22.64043,12.83984A9.12716,9.12716,0,0,1,26.16777,16.752a13.60284,13.60284,0,0,1,1.248,6.04785,15.77309,15.77309,0,0,1-1.43945,6.86426,11.257,11.257,0,0,1-4.00782,4.7041,10.58528,10.58528,0,0,1-5.92871,1.67969,8.59112,8.59112,0,0,1-6.86328-3.02344l-.624,7.96778A3.67234,3.67234,0,0,1,7.23222,43.7041a4.64006,4.64006,0,0,1-3.0957,1.03223,4.29372,4.29372,0,0,1-3.09668-1.08008A3.42873,3.42873,0,0,1,.00762,40.84766l2.0166-25.34375a3.96031,3.96031,0,0,1,1.2959-2.85547,4.48245,4.48245,0,0,1,3.12011-1.08008,4.24791,4.24791,0,0,1,2.71192.81543,3.14238,3.14238,0,0,1,1.17578,2.25586,7.5022,7.5022,0,0,1,2.95215-2.35156,9.84237,9.84237,0,0,1,4.10449-.81641A10.0176,10.0176,0,0,1,22.64043,12.83984ZM17.69609,28.03223A7.69214,7.69214,0,0,0,18.96855,23.376a6.39641,6.39641,0,0,0-1.20019-4.15235,4.15969,4.15969,0,0,0-3.40821-1.46386,3.98037,3.98037,0,0,0-3.4082,1.72851A7.52889,7.52889,0,0,0,9.7039,24a6.83552,6.83552,0,0,0,1.15235,4.2959,3.96286,3.96286,0,0,0,3.31152,1.46387A4.13787,4.13787,0,0,0,17.69609,28.03223Z"/><path class="cls-1" d="M31.76055,34.94434a3.29007,3.29007,0,0,1-1.03223-2.92872L32.83965,5.61621a4.01824,4.01824,0,0,1,1.416-3.02441A4.8302,4.8302,0,0,1,37.35234,1.584a4.44971,4.44971,0,0,1,3,1.00782,3.42278,3.42278,0,0,1,1.03223,3.02441L39.27226,32.01562a3.91326,3.91326,0,0,1-1.416,2.92872,4.83314,4.83314,0,0,1-3.0957,1.00781A4.4445,4.4445,0,0,1,31.76055,34.94434Z"/><path class="cls-1" d="M66.17558,24.8877a2.23925,2.23925,0,0,1-1.65625.60058H51.991q.57715,4.31982,5.23243,4.31934a8.4195,8.4195,0,0,0,2.30371-.26367,23.38363,23.38363,0,0,0,2.40039-.8877,3.78261,3.78261,0,0,1,1.48828-.38379,1.9418,1.9418,0,0,1,1.65527.81543,3.23013,3.23013,0,0,1,.60059,1.96777,4.42568,4.42568,0,0,1-.43262,1.91993A3.24124,3.24124,0,0,1,63.89531,34.416a11.79678,11.79678,0,0,1-3.19238,1.17578,17.93166,17.93166,0,0,1-4.10352.456,14.88414,14.88414,0,0,1-6.69629-1.43945,10.77247,10.77247,0,0,1-4.51172-4.05664A11.44468,11.44468,0,0,1,43.783,24.43164a14.00771,14.00771,0,0,1,1.56054-6.64746,11.64862,11.64862,0,0,1,4.34375-4.63184,11.8411,11.8411,0,0,1,6.24024-1.68066q5.13575,0,7.99218,3.09668,2.855,3.09522,2.85547,8.66406A2.23725,2.23725,0,0,1,66.17558,24.8877Zm-12.71972-6.624a5.63,5.63,0,0,0-1.36817,3.19238h7.63184A5.03771,5.03771,0,0,0,58.783,18.3125a3.1312,3.1312,0,0,0-2.56739-1.08008A3.72961,3.72961,0,0,0,53.45586,18.26367Z"/><path class="cls-1" d="M89.743,13.82422q2.66454,2.35254,2.66406,7.10351,0,1.00782-.04785,1.584l-.76856,9.5039a4.14634,4.14634,0,0,1-1.2959,2.9043,4.35656,4.35656,0,0,1-3.02343,1.03223,3.7755,3.7755,0,0,1-2.5918-.8877A3.25614,3.25614,0,0,1,83.575,32.73633a6.00584,6.00584,0,0,1-2.44824,2.44726,7.494,7.494,0,0,1-3.64746.86426,9.57,9.57,0,0,1-4.2002-.91211,7.29774,7.29774,0,0,1-2.97559-2.51953A6.26813,6.26813,0,0,1,69.22344,29.04a6.75234,6.75234,0,0,1,1.34375-4.3916,7.88686,7.88686,0,0,1,4.27148-2.42481,31.78132,31.78132,0,0,1,7.77637-.76758h1.72851l.04785-.33593q.19044-3.40723-3.792-3.40821a17.19368,17.19368,0,0,0-5.376,1.248,4.25371,4.25371,0,0,1-1.63282.33594,2.582,2.582,0,0,1-1.96777-.81543,2.70977,2.70977,0,0,1-.76758-1.91992,3.27825,3.27825,0,0,1,.50391-1.7041,3.97633,3.97633,0,0,1,1.55957-1.416,17.91388,17.91388,0,0,1,8.78418-1.96875Q87.0789,11.47168,89.743,13.82422ZM82.73515,29.1123a5.1055,5.1055,0,0,0,1.27149-3.19238l.04883-.52832h-1.2959a10.08226,10.08226,0,0,0-4.10449.60059,2.1328,2.1328,0,0,0-1.22364,2.08789,2.08643,2.08643,0,0,0,.69532,1.63183,2.66473,2.66473,0,0,0,1.84863.624A3.61248,3.61248,0,0,0,82.73515,29.1123Z"/><path class="cls-1" d="M97.35039,34.56055a4.07777,4.07777,0,0,1-1.79981-1.416A3.32523,3.32523,0,0,1,94.95,31.24805a3.28,3.28,0,0,1,.792-2.1836,2.50207,2.50207,0,0,1,1.99219-.93652,3.58345,3.58345,0,0,1,1.584.43262,16.9633,16.9633,0,0,0,3.43164,1.15136,16.12228,16.12228,0,0,0,3.57617.43262,5.35512,5.35512,0,0,0,2.13672-.33691,1.07707,1.07707,0,0,0,.74317-1.00782q0-.76757-.96-1.20019a26.07818,26.07818,0,0,0-3.12012-1.05566,33.57743,33.57743,0,0,1-4.27148-1.39161,8.25711,8.25711,0,0,1-3-2.13672,5.35081,5.35081,0,0,1-1.27247-3.71972A6.50394,6.50394,0,0,1,97.95,15.21582a8.78391,8.78391,0,0,1,3.93652-2.75977,16.80987,16.80987,0,0,1,6.02344-.98437,18.23032,18.23032,0,0,1,3.55273.4082,17.47759,17.47759,0,0,1,3.35938.98438,3.65887,3.65887,0,0,1,1.51172,1.3916,3.56876,3.56876,0,0,1,.50488,1.82422,3.1544,3.1544,0,0,1-.74414,2.08789,2.31664,2.31664,0,0,1-1.84863.88769,3.066,3.066,0,0,1-1.3916-.33593,12.8076,12.8076,0,0,0-5.71192-1.34375,5.68926,5.68926,0,0,0-2.28027.36035c-.52832.23926-.792.56836-.792.9834q0,.769.98437,1.248a18.87928,18.87928,0,0,0,3.14356,1.05664,36.05379,36.05379,0,0,1,4.29589,1.43946,8.33332,8.33332,0,0,1,2.97657,2.13574,5.35919,5.35919,0,0,1,1.27148,3.7207,6.56058,6.56058,0,0,1-2.90332,5.6875q-2.90478,2.04053-8.28027,2.04A22.02535,22.02535,0,0,1,97.35039,34.56055Z"/><path class="cls-1" d="M141.86992,24.8877a2.23925,2.23925,0,0,1-1.65625.60058H127.68535q.57716,4.31982,5.23242,4.31934a8.41945,8.41945,0,0,0,2.30371-.26367,23.38277,23.38277,0,0,0,2.40039-.8877,3.78265,3.78265,0,0,1,1.48828-.38379,1.9418,1.9418,0,0,1,1.65528.81543,3.23013,3.23013,0,0,1,.60058,1.96777,4.42581,4.42581,0,0,1-.43261,1.91993,3.24124,3.24124,0,0,1-1.34375,1.44043,11.79673,11.79673,0,0,1-3.19239,1.17578,17.93151,17.93151,0,0,1-4.10351.456,14.88414,14.88414,0,0,1-6.69629-1.43945,10.77247,10.77247,0,0,1-4.51172-4.05664,11.44459,11.44459,0,0,1-1.6084-6.12012,14.00772,14.00772,0,0,1,1.56055-6.64746,11.64848,11.64848,0,0,1,4.34375-4.63184,11.84107,11.84107,0,0,1,6.24023-1.68066q5.13575,0,7.99219,3.09668,2.855,3.09522,2.85547,8.66406A2.23729,2.23729,0,0,1,141.86992,24.8877Zm-12.71973-6.624a5.63,5.63,0,0,0-1.36816,3.19238h7.63184a5.03765,5.03765,0,0,0-.93653-3.14355A3.13117,3.13117,0,0,0,131.91,17.23242,3.72963,3.72963,0,0,0,129.15019,18.26367Z"/><path class="cls-1" d="M193.03691,12.14453a4.23264,4.23264,0,0,1,4.89649.33594,3.024,3.024,0,0,1,1.17578,2.44726,4.1785,4.1785,0,0,1-.48047,1.87207l-8.5918,16.752a4.03469,4.03469,0,0,1-1.84765,1.80078A5.89752,5.89752,0,0,1,185.47734,36a5.21709,5.21709,0,0,1-2.56836-.624,2.90965,2.90965,0,0,1-1.46386-1.77637L178.325,24l-4.46387,9.55176a3.89421,3.89421,0,0,1-1.7998,1.82422,5.88666,5.88666,0,0,1-2.71192.624,5.35789,5.35789,0,0,1-2.59277-.624,3.088,3.088,0,0,1-1.53613-1.77637L159.46074,16.7998a4.963,4.963,0,0,1-.24023-1.34375,3.5224,3.5224,0,0,1,1.39257-2.85644,4.83464,4.83464,0,0,1,3.12012-1.12793,3.57684,3.57684,0,0,1,2.06348.624,3.37482,3.37482,0,0,1,1.2959,1.82422l3.45605,11.52051,5.376-11.47266a4.03345,4.03345,0,0,1,1.51269-1.77539,3.83111,3.83111,0,0,1,2.08789-.624,3.309,3.309,0,0,1,1.94336.624,3.18138,3.18138,0,0,1,1.22461,1.77539l3.45606,11.52051,5.32812-11.52051A3.8936,3.8936,0,0,1,193.03691,12.14453Z"/><path class="cls-1" d="M220.8289,13.82422q2.66455,2.35254,2.66407,7.10351,0,1.00782-.04785,1.584l-.76856,9.5039a4.14634,4.14634,0,0,1-1.2959,2.9043,4.35659,4.35659,0,0,1-3.02344,1.03223,3.77545,3.77545,0,0,1-2.59179-.8877,3.25614,3.25614,0,0,1-1.10449-2.32812,6.00592,6.00592,0,0,1-2.44825,2.44726,7.494,7.494,0,0,1-3.64746.86426,9.57,9.57,0,0,1-4.20019-.91211,7.29774,7.29774,0,0,1-2.97559-2.51953A6.26814,6.26814,0,0,1,200.30937,29.04a6.7524,6.7524,0,0,1,1.34375-4.3916,7.88693,7.88693,0,0,1,4.27149-2.42481,31.78123,31.78123,0,0,1,7.77636-.76758h1.72852l.04785-.33593q.19044-3.40723-3.792-3.40821a17.19372,17.19372,0,0,0-5.376,1.248,4.25363,4.25363,0,0,1-1.63281.33594,2.582,2.582,0,0,1-1.96777-.81543,2.70977,2.70977,0,0,1-.76758-1.91992,3.27825,3.27825,0,0,1,.50391-1.7041,3.97619,3.97619,0,0,1,1.55957-1.416,17.91385,17.91385,0,0,1,8.78418-1.96875Q218.16484,11.47168,220.8289,13.82422ZM213.82109,29.1123a5.10556,5.10556,0,0,0,1.27149-3.19238l.04882-.52832h-1.29589a10.08235,10.08235,0,0,0-4.1045.60059,2.13281,2.13281,0,0,0-1.22363,2.08789,2.08645,2.08645,0,0,0,.69531,1.63183,2.66477,2.66477,0,0,0,1.84864.624A3.61248,3.61248,0,0,0,213.82109,29.1123Z"/><path class="cls-1" d="M228.50859,34.94434a3.29009,3.29009,0,0,1-1.03222-2.92872l1.34375-16.46386a4.0722,4.0722,0,0,1,1.48828-2.97559,4.92714,4.92714,0,0,1,3.12011-1.00781,4.35353,4.35353,0,0,1,2.97559,1.00781,3.28647,3.28647,0,0,1,.96,2.97559l-1.34375,16.46386a3.91326,3.91326,0,0,1-1.416,2.92872,4.83316,4.83316,0,0,1-3.09571,1.00781A4.44454,4.44454,0,0,1,228.50859,34.94434Zm2.06348-27.86426a3.80994,3.80994,0,0,1-1.27149-3,3.737,3.737,0,0,1,1.27149-2.97559,5.84688,5.84688,0,0,1,6.83984,0,3.70707,3.70707,0,0,1,1.2959,2.97559,3.81311,3.81311,0,0,1-1.27148,3,5.78571,5.78571,0,0,1-6.86426,0Z"/><path class="cls-1" d="M258.05156,30.48047a3.08954,3.08954,0,0,1,.52832,1.87207,3.11152,3.11152,0,0,1-1.32031,2.87988,9.30125,9.30125,0,0,1-4.584.81543q-4.46484,0-6.8164-2.18359-2.35254-2.18409-2.35156-6.36035,0-.95948.04785-1.43946l.624-7.72851h-1.3916a4.20158,4.20158,0,0,1-2.68848-.76758,2.66022,2.66022,0,0,1-.96-2.208q0-3.312,4.17578-3.3125h1.39258l.23926-3.12012A4.06168,4.06168,0,0,1,246.33965,6a4.8101,4.8101,0,0,1,3.21582-1.05566A4.099,4.099,0,0,1,252.57988,6a3.47759,3.47759,0,0,1,.91113,2.87988l-.23925,3.168h2.59179a4.01647,4.01647,0,0,1,2.61621.76856,2.63538,2.63538,0,0,1,.93555,2.15918,3.121,3.121,0,0,1-.9834,2.54492,4.813,4.813,0,0,1-3.09668.81543h-2.59179l-.624,7.77636a4.84853,4.84853,0,0,0-.04785.76758q0,3.0249,2.63965,3.02442l.96-.04785a10.1402,10.1402,0,0,1,1.05664-.09668A1.60467,1.60467,0,0,1,258.05156,30.48047Z"/><path class="cls-1" d="M307.85137,12.14453a4.23263,4.23263,0,0,1,4.89648.33594,3.024,3.024,0,0,1,1.17578,2.44726,4.1785,4.1785,0,0,1-.48047,1.87207l-8.59179,16.752a4.03466,4.03466,0,0,1-1.84766,1.80078A5.89745,5.89745,0,0,1,300.2918,36a5.217,5.217,0,0,1-2.56836-.624,2.90964,2.90964,0,0,1-1.46387-1.77637L293.13945,24l-4.46387,9.55176a3.89416,3.89416,0,0,1-1.7998,1.82422,5.88662,5.88662,0,0,1-2.71191.624,5.35793,5.35793,0,0,1-2.59278-.624,3.088,3.088,0,0,1-1.53613-1.77637L274.27519,16.7998a4.96336,4.96336,0,0,1-.24023-1.34375,3.52241,3.52241,0,0,1,1.39258-2.85644,4.8346,4.8346,0,0,1,3.12011-1.12793,3.57684,3.57684,0,0,1,2.06348.624,3.37482,3.37482,0,0,1,1.2959,1.82422l3.45605,11.52051,5.376-11.47266a4.03347,4.03347,0,0,1,1.5127-1.77539,3.83106,3.83106,0,0,1,2.08789-.624,3.309,3.309,0,0,1,1.94336.624,3.18142,3.18142,0,0,1,1.22461,1.77539l3.45605,11.52051,5.32813-11.52051A3.89354,3.89354,0,0,1,307.85137,12.14453Z"/><path class="cls-1" d="M339.12285,13.7041q2.01563,2.23242,2.01562,6.55176,0,1.05615-.04785,1.63184l-.81543,10.12792a4.275,4.275,0,0,1-1.39257,2.88086,4.62036,4.62036,0,0,1-3.168,1.05567,4.20366,4.20366,0,0,1-3.07129-1.08008,3.27642,3.27642,0,0,1-.91211-2.85645l.81543-9.83984a4.59729,4.59729,0,0,0-.64746-3.0957A2.86338,2.86338,0,0,0,329.42656,18a3.589,3.589,0,0,0-2.90332,1.22363,5.56823,5.56823,0,0,0-1.17676,3.28809l-.81543,9.5039a3.89486,3.89486,0,0,1-1.32031,2.88086,4.7107,4.7107,0,0,1-3.19141,1.05567,4.24787,4.24787,0,0,1-3.09668-1.05567,3.43666,3.43666,0,0,1-.93554-2.88086l2.11133-26.54394a3.80761,3.80761,0,0,1,1.36816-2.80762A4.90569,4.90569,0,0,1,322.75469,1.584a4.01245,4.01245,0,0,1,2.92773,1.03223,3.2758,3.2758,0,0,1,.96094,2.66406l-.72071,9.02344a8.45274,8.45274,0,0,1,3.12012-2.08789,11.10053,11.10053,0,0,1,4.12793-.74414A7.612,7.612,0,0,1,339.12285,13.7041Z"/><path class="cls-1" d="M346.05937,34.94434a3.29009,3.29009,0,0,1-1.03222-2.92872l1.34375-16.46386a4.0722,4.0722,0,0,1,1.48828-2.97559,4.92715,4.92715,0,0,1,3.12012-1.00781,4.3535,4.3535,0,0,1,2.97558,1.00781,3.28647,3.28647,0,0,1,.96,2.97559l-1.34375,16.46386a3.91326,3.91326,0,0,1-1.416,2.92872,4.83316,4.83316,0,0,1-3.09571,1.00781A4.44454,4.44454,0,0,1,346.05937,34.94434Zm2.06348-27.86426a3.80993,3.80993,0,0,1-1.27148-3,3.737,3.737,0,0,1,1.27148-2.97559,5.84688,5.84688,0,0,1,6.83984,0,3.70707,3.70707,0,0,1,1.2959,2.97559,3.81311,3.81311,0,0,1-1.27148,3,5.78571,5.78571,0,0,1-6.86426,0Z"/><path class="cls-1" d="M359.54668,34.94434a3.29007,3.29007,0,0,1-1.03223-2.92872l2.11133-26.39941a4.01821,4.01821,0,0,1,1.416-3.02441A4.83015,4.83015,0,0,1,365.13847,1.584a4.44969,4.44969,0,0,1,3,1.00782,3.42278,3.42278,0,0,1,1.03223,3.02441l-2.1123,26.39941a3.91327,3.91327,0,0,1-1.416,2.92872,4.83314,4.83314,0,0,1-3.0957,1.00781A4.4445,4.4445,0,0,1,359.54668,34.94434Z"/><path class="cls-1" d="M393.96269,24.8877a2.23925,2.23925,0,0,1-1.65625.60058H379.77812q.57716,4.31982,5.23243,4.31934a8.4195,8.4195,0,0,0,2.30371-.26367,23.38363,23.38363,0,0,0,2.40039-.8877,3.78261,3.78261,0,0,1,1.48828-.38379,1.9418,1.9418,0,0,1,1.65527.81543,3.23013,3.23013,0,0,1,.60059,1.96777,4.42568,4.42568,0,0,1-.43262,1.91993,3.24124,3.24124,0,0,1-1.34375,1.44043A11.79678,11.79678,0,0,1,388.49,35.5918a17.93166,17.93166,0,0,1-4.10352.456,14.88414,14.88414,0,0,1-6.69629-1.43945,10.77247,10.77247,0,0,1-4.51172-4.05664,11.44468,11.44468,0,0,1-1.60839-6.12012,14.00771,14.00771,0,0,1,1.56054-6.64746,11.64855,11.64855,0,0,1,4.34375-4.63184,11.8411,11.8411,0,0,1,6.24024-1.68066q5.13573,0,7.99218,3.09668,2.855,3.09522,2.85547,8.66406A2.23725,2.23725,0,0,1,393.96269,24.8877Zm-12.71972-6.624a5.63,5.63,0,0,0-1.36817,3.19238h7.63184a5.03771,5.03771,0,0,0-.93652-3.14355,3.1312,3.1312,0,0,0-2.56739-1.08008A3.72961,3.72961,0,0,0,381.243,18.26367Z"/><path class="cls-1" d="M445.12969,12.14453a4.23263,4.23263,0,0,1,4.89648.33594,3.024,3.024,0,0,1,1.17578,2.44726,4.1785,4.1785,0,0,1-.48047,1.87207l-8.59179,16.752a4.03466,4.03466,0,0,1-1.84766,1.80078A5.89745,5.89745,0,0,1,437.57012,36a5.217,5.217,0,0,1-2.56836-.624,2.90964,2.90964,0,0,1-1.46387-1.77637L430.41777,24l-4.46387,9.55176a3.89416,3.89416,0,0,1-1.7998,1.82422,5.88662,5.88662,0,0,1-2.71191.624,5.35793,5.35793,0,0,1-2.59278-.624,3.088,3.088,0,0,1-1.53613-1.77637L411.55351,16.7998a4.96336,4.96336,0,0,1-.24023-1.34375,3.52241,3.52241,0,0,1,1.39258-2.85644,4.8346,4.8346,0,0,1,3.12011-1.12793,3.57684,3.57684,0,0,1,2.06348.624,3.37482,3.37482,0,0,1,1.2959,1.82422l3.456,11.52051,5.376-11.47266a4.03347,4.03347,0,0,1,1.5127-1.77539,3.83106,3.83106,0,0,1,2.08789-.624,3.309,3.309,0,0,1,1.94336.624,3.18142,3.18142,0,0,1,1.22461,1.77539L438.242,25.48828l5.32813-11.52051A3.89354,3.89354,0,0,1,445.12969,12.14453Z"/><path class="cls-1" d="M474.69805,24.8877a2.23928,2.23928,0,0,1-1.65625.60058H460.51347q.57716,4.31982,5.23243,4.31934a8.4195,8.4195,0,0,0,2.30371-.26367,23.38363,23.38363,0,0,0,2.40039-.8877,3.78261,3.78261,0,0,1,1.48828-.38379,1.9418,1.9418,0,0,1,1.65527.81543,3.23013,3.23013,0,0,1,.60059,1.96777,4.42568,4.42568,0,0,1-.43262,1.91993,3.24119,3.24119,0,0,1-1.34375,1.44043,11.79678,11.79678,0,0,1-3.19238,1.17578,17.93166,17.93166,0,0,1-4.10352.456,14.88414,14.88414,0,0,1-6.69629-1.43945,10.77238,10.77238,0,0,1-4.51171-4.05664,11.44459,11.44459,0,0,1-1.6084-6.12012,14.00771,14.00771,0,0,1,1.56054-6.64746,11.64862,11.64862,0,0,1,4.34375-4.63184A11.8411,11.8411,0,0,1,464.45,11.47168q5.13574,0,7.99219,3.09668,2.855,3.09522,2.85546,8.66406A2.23729,2.23729,0,0,1,474.69805,24.8877Zm-12.71973-6.624a5.63,5.63,0,0,0-1.36817,3.19238H468.242a5.03771,5.03771,0,0,0-.93652-3.14355,3.1312,3.1312,0,0,0-2.56739-1.08008A3.72961,3.72961,0,0,0,461.97832,18.26367Z"/><path class="cls-1" d="M518.18535,2.66406a3.43406,3.43406,0,0,1,1.03223,2.80762l-2.06446,26.54394a4.13556,4.13556,0,0,1-1.34375,2.85645,4.49039,4.49039,0,0,1-3.12011,1.08008,4.06547,4.06547,0,0,1-2.68848-.83985,3.391,3.391,0,0,1-1.19922-2.23242,7.49415,7.49415,0,0,1-2.95215,2.35254,9.73725,9.73725,0,0,1-4.05664.81543,10.01272,10.01272,0,0,1-5.25586-1.36816,9.26074,9.26074,0,0,1-3.55176-3.91211,13.36883,13.36883,0,0,1-1.27246-6.04785,15.772,15.772,0,0,1,1.44043-6.86328,11.244,11.244,0,0,1,4.00782-4.70411,10.58052,10.58052,0,0,1,5.92773-1.68066,8.421,8.421,0,0,1,6.86426,3.02441l.71972-9.21582A3.62521,3.62521,0,0,1,511.993,2.61621a4.64006,4.64006,0,0,1,3.0957-1.03223A4.29534,4.29534,0,0,1,518.18535,2.66406ZM508.17754,28.03223a7.53754,7.53754,0,0,0,1.24707-4.51172,6.84688,6.84688,0,0,0-1.15137-4.29688,3.96745,3.96745,0,0,0-3.3125-1.46386,4.15164,4.15164,0,0,0-3.50391,1.72851,7.58819,7.58819,0,0,0-1.29589,4.65625,6.38609,6.38609,0,0,0,1.20019,4.15137,4.15424,4.15424,0,0,0,3.4082,1.46387A3.98426,3.98426,0,0,0,508.17754,28.03223Z"/><path class="cls-1" d="M523.17754,34.94434a3.29007,3.29007,0,0,1-1.03223-2.92872l1.34375-16.46386a4.0722,4.0722,0,0,1,1.48828-2.97559,4.92715,4.92715,0,0,1,3.12012-1.00781,4.35353,4.35353,0,0,1,2.97559,1.00781,3.28649,3.28649,0,0,1,.96,2.97559l-1.34375,16.46386a3.91327,3.91327,0,0,1-1.416,2.92872,4.83314,4.83314,0,0,1-3.0957,1.00781A4.4445,4.4445,0,0,1,523.17754,34.94434ZM525.241,7.08008a3.80993,3.80993,0,0,1-1.27148-3A3.737,3.737,0,0,1,525.241,1.10449a5.84689,5.84689,0,0,1,6.83985,0,3.70707,3.70707,0,0,1,1.2959,2.97559,3.81308,3.81308,0,0,1-1.27149,3,5.78571,5.78571,0,0,1-6.86426,0Z"/><path class="cls-1" d="M536.59258,34.56055a4.07777,4.07777,0,0,1-1.79981-1.416,3.32523,3.32523,0,0,1-.60058-1.89648,3.2799,3.2799,0,0,1,.792-2.1836,2.50207,2.50207,0,0,1,1.99219-.93652,3.58348,3.58348,0,0,1,1.584.43262,16.9633,16.9633,0,0,0,3.43164,1.15136,16.12228,16.12228,0,0,0,3.57617.43262,5.35512,5.35512,0,0,0,2.13672-.33691,1.07707,1.07707,0,0,0,.74317-1.00782q0-.76757-.96-1.20019A26.07723,26.07723,0,0,0,544.368,26.544a33.57817,33.57817,0,0,1-4.27149-1.39161,8.25728,8.25728,0,0,1-3-2.13672A5.35085,5.35085,0,0,1,535.824,19.2959a6.50394,6.50394,0,0,1,1.36817-4.08008,8.78391,8.78391,0,0,1,3.93652-2.75977,16.80987,16.80987,0,0,1,6.02344-.98437,18.2304,18.2304,0,0,1,3.55273.4082,17.47759,17.47759,0,0,1,3.35938.98438,3.65878,3.65878,0,0,1,1.51171,1.3916,3.56867,3.56867,0,0,1,.50489,1.82422,3.15445,3.15445,0,0,1-.74414,2.08789,2.31664,2.31664,0,0,1-1.84864.88769,3.06605,3.06605,0,0,1-1.3916-.33593,12.80756,12.80756,0,0,0-5.71191-1.34375,5.68926,5.68926,0,0,0-2.28027.36035c-.52833.23926-.792.56836-.792.9834q0,.769.98438,1.248a18.87943,18.87943,0,0,0,3.14355,1.05664,36.0534,36.0534,0,0,1,4.2959,1.43946,8.33328,8.33328,0,0,1,2.97656,2.13574,5.35915,5.35915,0,0,1,1.27149,3.7207,6.5606,6.5606,0,0,1-2.90332,5.6875q-2.9048,2.04053-8.28028,2.04A22.02534,22.02534,0,0,1,536.59258,34.56055Z"/><path class="cls-1" d="M581.06426,12.83984A9.12716,9.12716,0,0,1,584.5916,16.752a13.60284,13.60284,0,0,1,1.24805,6.04785,15.77309,15.77309,0,0,1-1.43946,6.86426,11.2569,11.2569,0,0,1-4.00781,4.7041,10.58531,10.58531,0,0,1-5.92871,1.67969,8.59112,8.59112,0,0,1-6.86328-3.02344l-.624,7.96778a3.67234,3.67234,0,0,1-1.32032,2.71191,4.64006,4.64006,0,0,1-3.0957,1.03223,4.2937,4.2937,0,0,1-3.09668-1.08008,3.42876,3.42876,0,0,1-1.03223-2.80859l2.01661-25.34375a3.96034,3.96034,0,0,1,1.29589-2.85547,4.48249,4.48249,0,0,1,3.12012-1.08008,4.24786,4.24786,0,0,1,2.71191.81543,3.14239,3.14239,0,0,1,1.17579,2.25586,7.50224,7.50224,0,0,1,2.95214-2.35156,9.84242,9.84242,0,0,1,4.1045-.81641A10.0176,10.0176,0,0,1,581.06426,12.83984Zm-4.94434,15.19239a7.69214,7.69214,0,0,0,1.27246-4.65625,6.39647,6.39647,0,0,0-1.20019-4.15235,4.1597,4.1597,0,0,0-3.40821-1.46386,3.98037,3.98037,0,0,0-3.4082,1.72851A7.52889,7.52889,0,0,0,568.12773,24a6.83552,6.83552,0,0,0,1.15235,4.2959,3.96285,3.96285,0,0,0,3.31152,1.46387A4.13787,4.13787,0,0,0,576.11992,28.03223Z"/><path class="cls-1" d="M611.11211,24.8877a2.23927,2.23927,0,0,1-1.65625.60058H596.92754q.57714,4.31982,5.23242,4.31934a8.4195,8.4195,0,0,0,2.30371-.26367,23.38363,23.38363,0,0,0,2.40039-.8877,3.78261,3.78261,0,0,1,1.48828-.38379,1.94181,1.94181,0,0,1,1.65528.81543,3.23013,3.23013,0,0,1,.60058,1.96777,4.42568,4.42568,0,0,1-.43262,1.91993,3.24113,3.24113,0,0,1-1.34375,1.44043,11.79665,11.79665,0,0,1-3.19238,1.17578,17.93158,17.93158,0,0,1-4.10351.456,14.88411,14.88411,0,0,1-6.69629-1.43945,10.77241,10.77241,0,0,1-4.51172-4.05664,11.44459,11.44459,0,0,1-1.6084-6.12012,14.00772,14.00772,0,0,1,1.56055-6.64746,11.64848,11.64848,0,0,1,4.34375-4.63184,11.84107,11.84107,0,0,1,6.24023-1.68066q5.13574,0,7.99219,3.09668,2.855,3.09522,2.85547,8.66406A2.23729,2.23729,0,0,1,611.11211,24.8877Zm-12.71973-6.624a5.63,5.63,0,0,0-1.36816,3.19238h7.63183a5.03758,5.03758,0,0,0-.93652-3.14355,3.13118,3.13118,0,0,0-2.56738-1.08008A3.72962,3.72962,0,0,0,598.39238,18.26367Z"/><path class="cls-1" d="M637.96758,13.7041q2.01563,2.23242,2.01562,6.55176,0,1.05615-.04785,1.63184l-.81543,10.12792a4.275,4.275,0,0,1-1.39258,2.88086,4.62033,4.62033,0,0,1-3.168,1.05567,4.20367,4.20367,0,0,1-3.07129-1.08008,3.27647,3.27647,0,0,1-.91211-2.85645l.81543-9.83984a4.59723,4.59723,0,0,0-.64746-3.0957A2.86337,2.86337,0,0,0,628.27129,18a3.589,3.589,0,0,0-2.90332,1.22363,5.56823,5.56823,0,0,0-1.17676,3.28809l-.81543,9.5039a4.09888,4.09888,0,0,1-1.34375,2.88086,4.62205,4.62205,0,0,1-3.168,1.05567,4.15878,4.15878,0,0,1-3.07226-1.05567,3.60456,3.60456,0,0,1-.96-2.88086l1.34375-16.55957a3.772,3.772,0,0,1,1.39161-2.80761,4.92362,4.92362,0,0,1,3.26464-1.08008,3.87335,3.87335,0,0,1,2.5918.81543,3.04463,3.04463,0,0,1,1.05567,2.208,8.67663,8.67663,0,0,1,3.21679-2.2793,10.89326,10.89326,0,0,1,4.31934-.84082A7.612,7.612,0,0,1,637.96758,13.7041Z"/><path class="cls-1" d="M644.83183,34.56055a4.07768,4.07768,0,0,1-1.7998-1.416,3.32524,3.32524,0,0,1-.60059-1.89648,3.27991,3.27991,0,0,1,.792-2.1836,2.50207,2.50207,0,0,1,1.99218-.93652,3.58348,3.58348,0,0,1,1.584.43262,16.9633,16.9633,0,0,0,3.43164,1.15136,16.12221,16.12221,0,0,0,3.57617.43262,5.35516,5.35516,0,0,0,2.13672-.33691,1.07706,1.07706,0,0,0,.74316-1.00782q0-.76757-.96-1.20019a26.07754,26.07754,0,0,0-3.12012-1.05566,33.578,33.578,0,0,1-4.27148-1.39161,8.25728,8.25728,0,0,1-3-2.13672,5.35085,5.35085,0,0,1-1.27246-3.71972,6.50393,6.50393,0,0,1,1.36816-4.08008,8.78394,8.78394,0,0,1,3.93653-2.75977,16.80977,16.80977,0,0,1,6.02343-.98437,18.23041,18.23041,0,0,1,3.55274.4082,17.47726,17.47726,0,0,1,3.35937.98438,3.65875,3.65875,0,0,1,1.51172,1.3916,3.56867,3.56867,0,0,1,.50489,1.82422A3.15441,3.15441,0,0,1,663.576,18.168a2.31662,2.31662,0,0,1-1.84863.88769,3.06605,3.06605,0,0,1-1.3916-.33593,12.80759,12.80759,0,0,0-5.71191-1.34375,5.68931,5.68931,0,0,0-2.28028.36035c-.52832.23926-.792.56836-.792.9834q0,.769.98438,1.248a18.87943,18.87943,0,0,0,3.14355,1.05664,36.0534,36.0534,0,0,1,4.2959,1.43946,8.33328,8.33328,0,0,1,2.97656,2.13574,5.35915,5.35915,0,0,1,1.27149,3.7207,6.5606,6.5606,0,0,1-2.90332,5.6875q-2.90479,2.04053-8.28028,2.04A22.02543,22.02543,0,0,1,644.83183,34.56055Z"/><path class="cls-1" d="M689.35137,24.8877a2.23928,2.23928,0,0,1-1.65625.60058H675.1668q.57714,4.31982,5.23242,4.31934a8.4195,8.4195,0,0,0,2.30371-.26367,23.38363,23.38363,0,0,0,2.40039-.8877,3.78261,3.78261,0,0,1,1.48828-.38379,1.9418,1.9418,0,0,1,1.65527.81543,3.23013,3.23013,0,0,1,.60059,1.96777,4.42568,4.42568,0,0,1-.43262,1.91993,3.24119,3.24119,0,0,1-1.34375,1.44043,11.79678,11.79678,0,0,1-3.19238,1.17578,17.93166,17.93166,0,0,1-4.10352.456,14.88414,14.88414,0,0,1-6.69629-1.43945,10.77238,10.77238,0,0,1-4.51171-4.05664,11.44459,11.44459,0,0,1-1.6084-6.12012,14.00783,14.00783,0,0,1,1.56054-6.64746,11.64862,11.64862,0,0,1,4.34375-4.63184,11.8411,11.8411,0,0,1,6.24024-1.68066q5.13574,0,7.99219,3.09668,2.855,3.09522,2.85546,8.66406A2.23729,2.23729,0,0,1,689.35137,24.8877Zm-12.71973-6.624a5.63,5.63,0,0,0-1.36817,3.19238h7.63184a5.03771,5.03771,0,0,0-.93652-3.14355,3.13119,3.13119,0,0,0-2.56739-1.08008A3.72961,3.72961,0,0,0,676.63164,18.26367Z"/><path class="cls-1" d="M238.97344,81.64746a3.23177,3.23177,0,0,1,.88769,2.49609,3.008,3.008,0,0,1-1.12793,2.54395,5.42683,5.42683,0,0,1-3.33594.86426h-1.00781l-.14453,1.584a4.7627,4.7627,0,0,1-1.46387,3.28809,4.63566,4.63566,0,0,1-3.19238,1.12793,4.0786,4.0786,0,0,1-3.02344-1.10449,3.90362,3.90362,0,0,1-.91211-3.26368l.14356-1.63183H214.99687a3.25875,3.25875,0,0,1-2.51953-.96,3.3964,3.3964,0,0,1-.88867-2.40039,5.928,5.928,0,0,1,1.34473-3.59961l15.168-19.48828a4.54335,4.54335,0,0,1,1.77539-1.43946,5.27448,5.27448,0,0,1,2.208-.48047,4.44744,4.44744,0,0,1,3.09668,1.15235,3.631,3.631,0,0,1,1.07911,3.21582L234.9168,80.832h1.05664A4.40234,4.40234,0,0,1,238.97344,81.64746ZM226.325,80.832l.624-8.16015L220.66094,80.832Z"/><path class="cls-1" d="M244.92461,89.75977q-3.14356-3.8877-3.14356-11.32813a29.78949,29.78949,0,0,1,1.63184-10.416,14.27212,14.27212,0,0,1,4.72754-6.67187A11.99463,11.99463,0,0,1,255.50859,59.04q6,0,9.14453,3.91211,3.1421,3.9126,3.14356,11.30371a29.78949,29.78949,0,0,1-1.63184,10.416,14.2672,14.2672,0,0,1-4.72754,6.67187,12.07248,12.07248,0,0,1-7.416,2.30371Q248.06817,93.64746,244.92461,89.75977Zm13.05664-6.33594q1.31835-3.55225,1.31933-10.36817a12.21778,12.21778,0,0,0-.96-5.59179,3.17109,3.17109,0,0,0-2.97558-1.752q-2.44776,0-3.76856,3.59961a31.34537,31.34537,0,0,0-1.31933,10.32032,12.20188,12.20188,0,0,0,.96,5.59179,3.16849,3.16849,0,0,0,2.97558,1.752Q256.66045,86.97559,257.98125,83.42383Z"/><path class="cls-1" d="M273.72441,89.75977q-3.14355-3.8877-3.14355-11.32813a29.7895,29.7895,0,0,1,1.63183-10.416,14.27219,14.27219,0,0,1,4.72754-6.67187A11.99466,11.99466,0,0,1,284.3084,59.04q6,0,9.14453,3.91211,3.14208,3.9126,3.14355,11.30371a29.7895,29.7895,0,0,1-1.63183,10.416,14.26727,14.26727,0,0,1-4.72754,6.67187,12.07253,12.07253,0,0,1-7.416,2.30371Q276.868,93.64746,273.72441,89.75977Zm13.05664-6.33594q1.31837-3.55225,1.31934-10.36817a12.21778,12.21778,0,0,0-.96-5.59179,3.17112,3.17112,0,0,0-2.97559-1.752q-2.44775,0-3.76855,3.59961A31.34506,31.34506,0,0,0,279.077,79.63184a12.202,12.202,0,0,0,.96,5.59179,3.1685,3.1685,0,0,0,2.97559,1.752Q285.46025,86.97559,286.78105,83.42383Z"/><path class="cls-1" d="M302.52324,89.75977q-3.14355-3.8877-3.14355-11.32813a29.7895,29.7895,0,0,1,1.63183-10.416,14.27212,14.27212,0,0,1,4.72754-6.67187A11.99463,11.99463,0,0,1,313.10722,59.04q6,0,9.14454,3.91211,3.14208,3.9126,3.14355,11.30371a29.78926,29.78926,0,0,1-1.63184,10.416,14.26725,14.26725,0,0,1-4.72753,6.67187,12.07253,12.07253,0,0,1-7.416,2.30371Q305.66679,93.64746,302.52324,89.75977Zm13.05664-6.33594q1.31837-3.55225,1.31934-10.36817a12.21791,12.21791,0,0,0-.96-5.59179,3.17112,3.17112,0,0,0-2.97559-1.752q-2.44776,0-3.76855,3.59961a31.34506,31.34506,0,0,0-1.31934,10.32032,12.202,12.202,0,0,0,.96,5.59179,3.1685,3.1685,0,0,0,2.97559,1.752Q314.25907,86.97559,315.57988,83.42383Z"/><path class="cls-1" d="M358.99492,88.08008a3.71734,3.71734,0,0,1-.792,4.752,9.30127,9.30127,0,0,1-4.584.81543q-4.46484,0-6.8164-2.18359Q344.45,89.27978,344.451,85.10352q0-.95947.04786-1.43946l.624-7.72851h-1.3916a4.20156,4.20156,0,0,1-2.68848-.76758,2.66022,2.66022,0,0,1-.96-2.208q0-3.312,4.17578-3.3125h1.39258l.23926-3.12012a4.06168,4.06168,0,0,1,1.39258-2.92773,4.81,4.81,0,0,1,3.21582-1.05566,4.099,4.099,0,0,1,3.02441,1.05566,3.47759,3.47759,0,0,1,.91113,2.87988l-.23925,3.168h2.59179a4.01647,4.01647,0,0,1,2.61621.76856,2.63538,2.63538,0,0,1,.93555,2.15918,3.121,3.121,0,0,1-.9834,2.54492,4.813,4.813,0,0,1-3.09668.81543H353.6668l-.624,7.77636a4.84853,4.84853,0,0,0-.04785.76758q0,3.0249,2.63965,3.02442l.96-.04786a10.14218,10.14218,0,0,1,1.05664-.09667A1.60467,1.60467,0,0,1,358.99492,88.08008Z"/><path class="cls-1" d="M362.37969,92.544a3.29007,3.29007,0,0,1-1.03223-2.92872l1.34375-16.46386a4.0722,4.0722,0,0,1,1.48828-2.97559,4.92715,4.92715,0,0,1,3.12012-1.00781,4.35348,4.35348,0,0,1,2.97558,1.00781,3.28647,3.28647,0,0,1,.96,2.97559L369.8914,89.61523a3.91323,3.91323,0,0,1-1.416,2.92872,4.83314,4.83314,0,0,1-3.0957,1.00781A4.4445,4.4445,0,0,1,362.37969,92.544Zm2.06347-27.86426a3.80993,3.80993,0,0,1-1.27148-3,3.737,3.737,0,0,1,1.27148-2.97559,5.84689,5.84689,0,0,1,6.83985,0,3.70709,3.70709,0,0,1,1.29589,2.97559,3.81308,3.81308,0,0,1-1.27148,3,5.78571,5.78571,0,0,1-6.86426,0Z"/><path class="cls-1" d="M380.54668,92.23145a10.586,10.586,0,0,1-4.53613-4.03223,11.44349,11.44349,0,0,1-1.6084-6.11914,13.95273,13.95273,0,0,1,1.65625-6.93653,10.98561,10.98561,0,0,1,4.752-4.51171,15.97239,15.97239,0,0,1,7.27246-1.56055,19.90959,19.90959,0,0,1,4.27149.43262,12.92547,12.92547,0,0,1,3.3125,1.15136,2.77983,2.77983,0,0,1,1.15136,1.2002,3.607,3.607,0,0,1,.38477,1.63183,3.96216,3.96216,0,0,1-.74414,2.376,2.25168,2.25168,0,0,1-1.89649,1.03223,2.97015,2.97015,0,0,1-1.34375-.33594,11.44826,11.44826,0,0,0-4.6084-1.05566,4.98377,4.98377,0,0,0-4.00781,1.65625,7.06608,7.06608,0,0,0-1.416,4.72754,5.71277,5.71277,0,0,0,1.248,3.9121,4.42373,4.42373,0,0,0,3.50391,1.416A10.82871,10.82871,0,0,0,390.19414,87a13.782,13.782,0,0,0,2.208-.69629,3.323,3.323,0,0,1,1.48828-.38379,1.96223,1.96223,0,0,1,1.65625.792,3.127,3.127,0,0,1,.59961,1.94336,4.39013,4.39013,0,0,1-.45606,1.94434,3.35152,3.35152,0,0,1-1.36816,1.46387,13.11961,13.11961,0,0,1-3.168,1.12793,16.38671,16.38671,0,0,1-3.792.456A15.4761,15.4761,0,0,1,380.54668,92.23145Z"/><path class="cls-1" d="M421.827,87.168a3.32419,3.32419,0,0,1,.86328,2.208,4.02119,4.02119,0,0,1-1.36816,2.95214,4.29092,4.29092,0,0,1-3.04785,1.31934,3.53929,3.53929,0,0,1-2.78321-1.34375l-7.63281-9.07226-.47949,6.28808a3.92771,3.92771,0,0,1-1.44043,2.97656,4.929,4.929,0,0,1-3.12012,1.00782,4.41894,4.41894,0,0,1-2.97558-.98438,3.32267,3.32267,0,0,1-1.00782-2.95215L400.94609,63.168a3.96589,3.96589,0,0,1,1.416-2.97656,4.83016,4.83016,0,0,1,3.09668-1.00782,4.5174,4.5174,0,0,1,3,.98438,3.29513,3.29513,0,0,1,1.03222,2.95215l-1.29687,16.22363,8.68848-8.97656a3.83189,3.83189,0,0,1,5.54394-.11914,3.51989,3.51989,0,0,1,1.17578,2.61523,3.56784,3.56784,0,0,1-1.20019,2.64063l-5.56739,5.61621Z"/><path class="cls-1" d="M448.44219,82.4873a2.23923,2.23923,0,0,1-1.65625.60059H434.25762q.57714,4.31982,5.23242,4.31934a8.41907,8.41907,0,0,0,2.30371-.26368,23.38077,23.38077,0,0,0,2.40039-.88769,3.78261,3.78261,0,0,1,1.48828-.38379,1.94176,1.94176,0,0,1,1.65527.81543,3.23013,3.23013,0,0,1,.60059,1.96777,4.42571,4.42571,0,0,1-.43262,1.91993,3.24111,3.24111,0,0,1-1.34375,1.44042,11.79643,11.79643,0,0,1-3.19238,1.17579,17.93166,17.93166,0,0,1-4.10352.456,14.88414,14.88414,0,0,1-6.69629-1.43945,10.77251,10.77251,0,0,1-4.51171-4.05664,11.44459,11.44459,0,0,1-1.6084-6.12012,14.00783,14.00783,0,0,1,1.56054-6.64746,11.64862,11.64862,0,0,1,4.34375-4.63184,11.8411,11.8411,0,0,1,6.24024-1.68066q5.13574,0,7.99219,3.09668,2.855,3.09522,2.85547,8.66406A2.23725,2.23725,0,0,1,448.44219,82.4873Zm-12.71973-6.624a5.63,5.63,0,0,0-1.36816,3.19238h7.63183a5.03771,5.03771,0,0,0-.93652-3.14355,3.13119,3.13119,0,0,0-2.56739-1.08008A3.72961,3.72961,0,0,0,435.72246,75.86328Z"/><path class="cls-1" d="M468.67363,88.08008a3.71734,3.71734,0,0,1-.792,4.752,9.30125,9.30125,0,0,1-4.584.81543q-4.46484,0-6.8164-2.18359-2.35254-2.18409-2.35156-6.36035,0-.95947.04785-1.43946l.624-7.72851H453.41a4.20158,4.20158,0,0,1-2.68848-.76758,2.66022,2.66022,0,0,1-.96-2.208q0-3.312,4.17578-3.3125h1.39258l.23926-3.12012a4.06168,4.06168,0,0,1,1.39258-2.92773,4.81,4.81,0,0,1,3.21582-1.05566,4.099,4.099,0,0,1,3.02441,1.05566,3.47759,3.47759,0,0,1,.91113,2.87988l-.23925,3.168h2.59179a4.01647,4.01647,0,0,1,2.61621.76856,2.63538,2.63538,0,0,1,.93555,2.15918,3.121,3.121,0,0,1-.9834,2.54492,4.813,4.813,0,0,1-3.09668.81543h-2.59179l-.624,7.77636a4.84853,4.84853,0,0,0-.04785.76758q0,3.0249,2.63965,3.02442l.96-.04786a10.14218,10.14218,0,0,1,1.05664-.09667A1.60467,1.60467,0,0,1,468.67363,88.08008Z"/><path class="cls-1" d="M471.98613,92.16016a4.07768,4.07768,0,0,1-1.7998-1.416,3.32524,3.32524,0,0,1-.60059-1.89648,3.27993,3.27993,0,0,1,.792-2.1836,2.50208,2.50208,0,0,1,1.99219-.93652,3.58345,3.58345,0,0,1,1.584.43262,16.96319,16.96319,0,0,0,3.43165,1.15136,16.12221,16.12221,0,0,0,3.57617.43262,5.35516,5.35516,0,0,0,2.13672-.33691,1.07707,1.07707,0,0,0,.74316-1.00782q0-.76757-.96-1.20019a26.07962,26.07962,0,0,0-3.12012-1.05567,33.576,33.576,0,0,1-4.27148-1.3916,8.25723,8.25723,0,0,1-3-2.13672,5.3508,5.3508,0,0,1-1.27246-3.71972,6.50393,6.50393,0,0,1,1.36816-4.08008,8.78391,8.78391,0,0,1,3.93652-2.75977,16.80987,16.80987,0,0,1,6.02344-.98437,18.23041,18.23041,0,0,1,3.55274.4082,17.47726,17.47726,0,0,1,3.35937.98438,3.65881,3.65881,0,0,1,1.51172,1.3916,3.56866,3.56866,0,0,1,.50488,1.82422,3.1544,3.1544,0,0,1-.74414,2.08789,2.31662,2.31662,0,0,1-1.84863.88769,3.066,3.066,0,0,1-1.3916-.33593,12.8076,12.8076,0,0,0-5.71192-1.34375,5.68929,5.68929,0,0,0-2.28027.36035c-.52832.23926-.792.56836-.792.9834q0,.769.98437,1.248a18.87961,18.87961,0,0,0,3.14356,1.05664,36.05283,36.05283,0,0,1,4.2959,1.43946,8.33328,8.33328,0,0,1,2.97656,2.13574,5.35917,5.35917,0,0,1,1.27148,3.7207,6.56058,6.56058,0,0,1-2.90332,5.6875q-2.90478,2.04052-8.28027,2.04A22.02539,22.02539,0,0,1,471.98613,92.16016Z"/></g></g></svg>