<svg xmlns="http://www.w3.org/2000/svg" xmlns:xlink="http://www.w3.org/1999/xlink" viewBox="0 0 509.86504 105.94041"><defs><style>.cls-1{filter:url(#filter);}.cls-2{fill:#f48edb;}.cls-3{fill:#61d1bc;}.cls-4{fill:#f7ffd9;}.cls-5{fill:#cbbdff;}.cls-6{fill:#bff;}</style><filter id="filter"><feOffset dx="7" dy="7" input="SourceAlpha"/><feGaussianBlur stdDeviation="20" result="blur"/><feFlood flood-color="#5e5e5e"/><feComposite operator="in" in2="blur"/><feComposite in="SourceGraphic"/></filter></defs><g id="Layer_2" data-name="Layer 2"><g id="Layer_1-2" data-name="Layer 1"><g class="cls-1"><path class="cls-2" d="M108.43206,21.37243a11.02186,11.02186,0,0,1,6.04057-1.79418,9.61286,9.61286,0,0,1,6.51869,2.33227,7.88559,7.88559,0,0,1,2.69209,6.27963,12.66129,12.66129,0,0,1-1.31606,5.50248l-28.46864,65.191a10.75219,10.75219,0,0,1-4.66537,5.20346,13.50025,13.50025,0,0,1-6.81771,1.85332,11.86923,11.86923,0,0,1-6.57949-1.85332,8.37145,8.37145,0,0,1-3.70748-5.08434l-12.321-44.7362L40.54978,98.88363a10.457,10.457,0,0,1-4.60539,5.2626,13.7321,13.7321,0,0,1-6.87769,1.79418,11.93759,11.93759,0,0,1-6.45954-1.79418,8.644,8.644,0,0,1-3.82742-5.14348L.47812,33.81257A13.85928,13.85928,0,0,1,0,30.22339a9.60666,9.60666,0,0,1,3.46842-7.71481,11.895,11.895,0,0,1,7.89472-2.93033,9.90091,9.90091,0,0,1,5.80151,1.79418,8.55052,8.55052,0,0,1,3.40927,5.14348L32.416,74.00335,52.87,26.635a10.98538,10.98538,0,0,1,4.30636-5.14348,11.123,11.123,0,0,1,5.9806-1.79418,9.62925,9.62925,0,0,1,5.74154,1.79418,8.69562,8.69562,0,0,1,3.3493,5.26342l12.08114,48.0855L104.18567,26.635A11.02869,11.02869,0,0,1,108.43206,21.37243Z"/><path class="cls-3" d="M131.657,82.71466q-2.69127-2.92911-2.21315-7.95387L134.4682,10.885a11.9234,11.9234,0,0,1,3.64833-7.95387A11.592,11.592,0,0,1,146.31029,0q5.141,0,7.89472,2.93115,2.75042,2.93157,2.2723,7.83475l-5.02354,63.875a12.17673,12.17673,0,0,1-3.64833,8.01466,11.62218,11.62218,0,0,1-8.3137,2.9903Q134.34827,85.64581,131.657,82.71466Z"/><path class="cls-4" d="M239.77113,22.92673a9.65626,9.65626,0,0,1,2.21315,7.7756l-5.02354,63.99488a12.3278,12.3278,0,0,1-3.52921,7.89473,10.41766,10.41766,0,0,1-7.5957,2.9903q-5.74111,0-8.01383-3.46925l-32.536-44.61708-2.9903,37.08136a12.12419,12.12419,0,0,1-3.3493,8.01467,10.519,10.519,0,0,1-7.77478,2.9903,9.06545,9.06545,0,0,1-7.17754-2.9903q-2.63213-2.98948-2.15318-7.89473l5.02436-63.99488a12.04969,12.04969,0,0,1,3.58836-7.7756,10.6255,10.6255,0,0,1,7.65566-2.9903q5.38254,0,7.77478,3.46924l32.536,44.7362,2.9903-37.32042a11.83539,11.83539,0,0,1,3.40927-7.89472,10.42021,10.42021,0,0,1,7.59569-2.9903A9.40132,9.40132,0,0,1,239.77113,22.92673Z"/><path class="cls-5" d="M326.991,2.9903a9.65627,9.65627,0,0,1,2.21315,7.7756l-5.02354,63.99489a12.3278,12.3278,0,0,1-3.52921,7.89472,10.41766,10.41766,0,0,1-7.59569,2.9903q-5.74113,0-8.01384-3.46924L272.50587,37.55948l-2.9903,37.08137a12.12416,12.12416,0,0,1-3.3493,8.01466,10.519,10.519,0,0,1-7.77478,2.9903,9.06545,9.06545,0,0,1-7.17754-2.9903q-2.63213-2.98949-2.15318-7.89472l5.02436-63.99489a12.04971,12.04971,0,0,1,3.58836-7.7756A10.62556,10.62556,0,0,1,265.32915,0q5.38254,0,7.77478,3.46924l32.536,44.7362,2.9903-37.32042a11.83548,11.83548,0,0,1,3.40927-7.89472A10.42025,10.42025,0,0,1,319.63514,0,9.40135,9.40135,0,0,1,326.991,2.9903Z"/><path class="cls-2" d="M357.25459,37.52005l-1.31606,16.0285H383.69q4.78244,0,7.23669,2.03406a7.04907,7.04907,0,0,1,2.45221,5.74154q0,4.66413-2.69209,6.87769-2.69127,2.21439-8.31287,2.21315H354.62247l-1.43518,17.46368h30.26282q4.78367,0,7.23669,2.15318a7.404,7.404,0,0,1,2.45221,5.86148q0,8.9709-11.12408,8.9709H340.628q-4.90689,0-7.35663-2.6313-2.45345-2.62965-1.97409-7.53572l5.02436-63.99488a11.27543,11.27543,0,0,1,3.3493-7.53572,10.89316,10.89316,0,0,1,7.65566-2.63212h41.50684q4.78244,0,7.23669,2.09321a7.08983,7.08983,0,0,1,2.45221,5.68239q0,9.21243-11.1249,9.21Z"/><path class="cls-3" d="M483.60873,102.23293a11.99995,11.99995,0,0,1,0-16.50744,11.02287,11.02287,0,0,1,8.19375-3.3493,11.17131,11.17131,0,0,1,8.31369,3.3493,11.99995,11.99995,0,0,1,0,16.50744,11.16508,11.16508,0,0,1-8.31369,3.34931A11.01666,11.01666,0,0,1,483.60873,102.23293Zm5.62242-26.91352a7.47811,7.47811,0,0,1-1.85415-4.7853l-3.22936-37.20048q-.47935-6.93519,3.3493-10.167,3.82619-3.22977,10.167-3.23018a13.42929,13.42929,0,0,1,8.73184,2.81121,9.3935,9.3935,0,0,1,3.46924,7.71563,14.44629,14.44629,0,0,1-.359,2.9903l-9.3299,37.08054a8.3499,8.3499,0,0,1-2.45221,4.7853,6.29957,6.29957,0,0,1-4.36633,1.67424A5.47945,5.47945,0,0,1,489.23115,75.31941Z"/><path class="cls-6" d="M469.49435,71.76966a10.31722,10.31722,0,0,1,1.07618,4.42631,8.996,8.996,0,0,1-3.46842,7.11675,11.74676,11.74676,0,0,1-7.7756,2.93115,10.26833,10.26833,0,0,1-5.50248-1.55512,11.16048,11.16048,0,0,1-4.06648-4.66536l-10.287-22.00911a7.6385,7.6385,0,0,0-7.53572-4.66536h-7.65566l-1.55512,21.29193a11.83613,11.83613,0,0,1-3.46924,8.01466,11.24494,11.24494,0,0,1-8.13378,2.9903q-5.02395,0-7.77478-2.93115-2.75289-2.92911-2.27313-7.95387l5.02437-63.99489a11.41857,11.41857,0,0,1,3.28933-7.53572A10.84432,10.84432,0,0,1,417.10249.59806h30.74094q13.27767,0,20.69386,6.75857,7.41455,6.759,7.41578,18.00259,0,11.24444-5.20345,17.76271Q465.547,49.64309,454.542,51.67468a12.55578,12.55578,0,0,1,5.44251,2.87036,20.14509,20.14509,0,0,1,4.12645,5.86148ZM443.418,36.8423q5.85942,0,8.91093-2.63212,3.05109-2.62965,3.05027-7.53572,0-4.78242-2.57133-7.11675-2.57421-2.33268-7.95469-2.33309H427.03045L425.59527,36.8423Z"/></g></g></g></svg>